<?xml version="1.0" encoding="UTF-8"?>
<!-- Generated by Pixelmator Pro 3.7 -->
<svg width="2441" height="4365" viewBox="0 0 2441 4365" xmlns="http://www.w3.org/2000/svg">
    <g id="Gruppo">
        <path id="Percorso" fill="#000000" fill-rule="evenodd" stroke="none" d="M 223.607422 684.015625 L 0.227539 681.639648 L 0.227539 4136.539063 L 223.607422 4136.539063 L 223.607422 4112.641602 C 223.607422 4093.541016 239.232422 4077.916016 258.332031 4077.916016 L 61.766602 4077.916016 L 61.766602 740.261719 L 251.390625 742.932617 L 251.390625 739.55957 C 235.586914 736.316406 223.607422 722.256836 223.607422 705.537109 L 223.607422 684.015625 L 223.607422 684.015625 Z"/>
        <path id="path1" fill="#000000" fill-rule="evenodd" stroke="none" d="M 1684.503906 1.105469 L 979.214844 1.105469 C 926.520508 1.105469 883.397461 44.222656 883.397461 96.922852 L 883.397461 474.1875 L 1780.321289 474.1875 L 1780.321289 96.922852 C 1780.321289 44.222656 1737.198242 1.105469 1684.503906 1.105469 L 1684.503906 1.105469 Z"/>
        <path id="path2" fill="#000000" fill-rule="evenodd" stroke="none" d="M 262.791992 740.261719 L 61.766602 740.261719 L 61.766602 4077.916016 L 262.791992 4077.916016 L 2400.926758 4077.916016 L 2400.926758 740.261719 L 262.791992 740.261719 L 262.791992 740.261719 Z"/>
        <path id="path3" fill="#000000" fill-rule="evenodd" stroke="none" d="M 2405.386719 4077.916016 L 258.332031 4077.916016 C 239.241211 4077.916016 223.607422 4093.541016 223.607422 4112.641602 L 223.607422 4329.918945 C 223.607422 4349.018555 239.241211 4364.645508 258.332031 4364.645508 L 2405.386719 4364.645508 C 2424.486328 4364.645508 2440.111328 4349.018555 2440.111328 4329.918945 L 2440.111328 4112.641602 C 2440.111328 4093.541016 2424.486328 4077.916016 2405.386719 4077.916016 L 2405.386719 4077.916016 Z"/>
        <path id="path4" fill="#e19c03" fill-rule="evenodd" stroke="none" d="M 412.001953 1101.024414 L 2055.02832 1101.024414 L 2055.02832 4077.914063 L 412.001953 4077.914063 L 412.001953 1101.024414 L 412.001953 1101.024414 Z"/>
        <path id="path5" fill="#ffffff" stroke="none" d="M 1700.34082 970.095703 L 1678.172852 947.702148 C 1671.987305 953.433594 1665.770508 957.956055 1659.512695 961.274414 C 1653.253906 964.59082 1645.604492 966.250977 1636.554688 966.250977 C 1629.767578 966.250977 1623.541992 964.929688 1617.886719 962.291016 C 1612.238281 959.652344 1607.413086 956.070313 1603.416992 951.546875 C 1599.420898 947.022461 1596.288086 941.743164 1594.025391 935.712891 C 1591.763672 929.680664 1590.631836 923.271484 1590.631836 916.484375 L 1590.631836 916.033203 C 1590.631836 909.246094 1591.763672 902.875977 1594.025391 896.918945 C 1596.288086 890.961914 1599.454102 885.720703 1603.530273 881.196289 C 1607.599609 876.672852 1612.466797 873.128906 1618.114258 870.56543 C 1623.770508 868.001953 1629.914063 866.720703 1636.554688 866.720703 C 1644.546875 866.720703 1651.749023 868.303711 1658.15332 871.470703 C 1664.566406 874.636719 1670.865234 879.010742 1677.041992 884.589844 L 1699.208984 859.02832 C 1695.595703 855.411133 1691.673828 852.092773 1687.450195 849.075195 C 1683.226563 846.060547 1678.628906 843.49707 1673.648438 841.384766 C 1668.675781 839.273438 1663.133789 837.615234 1657.021484 836.408203 C 1650.918945 835.202148 1644.172852 834.597656 1636.783203 834.597656 C 1624.55957 834.597656 1613.402344 836.746094 1603.303711 841.046875 C 1593.195313 845.34375 1584.52832 851.223633 1577.286133 858.69043 C 1570.050781 866.155273 1564.395508 874.824219 1560.326172 884.703125 C 1556.249023 894.579102 1554.214844 905.174805 1554.214844 916.484375 L 1554.214844 916.938477 C 1554.214844 928.248047 1556.249023 938.87793 1560.326172 948.831055 C 1564.395508 958.78418 1570.050781 967.417969 1577.286133 974.732422 C 1584.52832 982.046875 1593.12207 987.816406 1603.075195 992.038086 C 1613.027344 996.259766 1623.810547 998.371094 1635.423828 998.371094 C 1643.114258 998.371094 1650.047852 997.730469 1656.232422 996.448242 C 1662.417969 995.166992 1668.106445 993.28125 1673.314453 990.792969 C 1678.514648 988.304688 1683.299805 985.326172 1687.678711 981.859375 C 1692.047852 978.390625 1696.272461 974.469727 1700.34082 970.095703 L 1700.34082 970.095703 Z"/>
        <path id="path6" fill="#ffffff" stroke="none" d="M 1790.144531 942.045898 L 1790.144531 909.021484 L 1720.474609 909.021484 L 1720.474609 942.045898 L 1790.144531 942.045898 L 1790.144531 942.045898 Z"/>
        <path id="path7" fill="#ffffff" stroke="none" d="M 1895.328125 836.180664 L 1808.470703 936.84375 L 1814.126953 961.498047 L 1891.486328 961.498047 L 1891.486328 995.657227 L 1924.738281 995.657227 L 1924.738281 961.498047 L 1946.00293 961.498047 L 1946.00293 933.222656 L 1924.738281 933.222656 L 1924.738281 836.180664 L 1895.328125 836.180664 L 1895.328125 836.180664 Z M 1891.486328 933.222656 L 1849.413086 933.222656 L 1891.486328 883.910156 L 1891.486328 933.222656 L 1891.486328 933.222656 Z"/>
        <path id="path8" fill="#ffffff" stroke="none" d="M 1962.735352 849.754883 L 1969.977539 878.255859 L 1997.574219 871.470703 L 1997.574219 995.657227 L 2031.957031 995.657227 L 2031.957031 836.180664 L 2008.209961 836.180664 L 1962.735352 849.754883 L 1962.735352 849.754883 Z"/>
        <path id="path9" fill="#000000" fill-rule="evenodd" stroke="none" d="M 2405.386719 453.533203 L 258.332031 453.533203 C 239.241211 453.533203 223.607422 469.158203 223.607422 488.259766 L 223.607422 705.537109 C 223.607422 724.634766 239.241211 740.261719 258.332031 740.261719 L 2405.386719 740.261719 C 2424.486328 740.261719 2440.111328 724.634766 2440.111328 705.537109 L 2440.111328 488.259766 C 2440.111328 469.158203 2424.486328 453.533203 2405.386719 453.533203 L 2405.386719 453.533203 Z"/>
        <path id="path10" fill="#ffffff" stroke="none" d="M 2323.119141 2977.008789 L 2289.964844 2985.427734 L 2297.858398 3017.52832 L 2153.408203 3017.52832 L 2153.408203 3057.522461 L 2338.907227 3057.522461 L 2338.907227 3029.895508 L 2323.119141 2977.008789 L 2323.119141 2977.008789 Z"/>
        <path id="path11" fill="#ffffff" stroke="none" d="M 2245.758789 3259.59375 C 2259.097656 3259.59375 2271.548828 3257.665039 2283.128906 3253.807617 C 2294.701172 3249.946289 2304.78418 3244.464844 2313.385742 3237.360352 C 2321.979492 3230.255859 2328.685547 3221.662109 2333.511719 3211.575195 C 2338.337891 3201.488281 2340.746094 3190.306641 2340.746094 3178.030273 C 2340.746094 3165.75 2338.288086 3154.568359 2333.380859 3144.481445 C 2328.46582 3134.394531 2321.719727 3125.755859 2313.117188 3118.56543 C 2304.523438 3111.374023 2294.391602 3105.803711 2282.730469 3101.858398 C 2271.068359 3097.911133 2258.568359 3095.938477 2245.238281 3095.938477 C 2231.729492 3095.938477 2219.229492 3097.867188 2207.738281 3101.725586 C 2196.255859 3105.585938 2186.212891 3111.066406 2177.619141 3118.170898 C 2169.017578 3125.273438 2162.3125 3133.869141 2157.486328 3143.956055 C 2152.660156 3154.043945 2150.250977 3165.222656 2150.250977 3177.503906 C 2150.250977 3189.78125 2152.708984 3200.962891 2157.616211 3211.049805 C 2162.53125 3221.134766 2169.286133 3229.773438 2177.879883 3236.96582 C 2186.473633 3244.157227 2196.556641 3249.728516 2208.136719 3253.674805 C 2219.717773 3257.620117 2232.257813 3259.59375 2245.758789 3259.59375 L 2245.758789 3259.59375 Z M 2245.238281 3218.022461 C 2236.81543 3218.022461 2229.051758 3217.100586 2221.947266 3215.259766 C 2214.842773 3213.418945 2208.666016 3210.743164 2203.400391 3207.233398 C 2198.135742 3203.726563 2194.058594 3199.516602 2191.168945 3194.603516 C 2188.271484 3189.692383 2186.823242 3184.167969 2186.823242 3178.030273 C 2186.823242 3171.890625 2188.3125 3166.321289 2191.299805 3161.321289 C 2194.277344 3156.322266 2198.404297 3152.068359 2203.661133 3148.560547 C 2208.926758 3145.050781 2215.152344 3142.333008 2222.34668 3140.404297 C 2229.540039 3138.475586 2237.344727 3137.508789 2245.758789 3137.508789 C 2254.181641 3137.508789 2261.986328 3138.430664 2269.180664 3140.271484 C 2276.375 3142.113281 2282.558594 3144.791016 2287.726563 3148.297852 C 2292.90332 3151.805664 2296.939453 3156.014648 2299.835938 3160.925781 C 2302.725586 3165.837891 2304.173828 3171.363281 2304.173828 3177.503906 C 2304.173828 3183.641602 2302.68457 3189.211914 2299.698242 3194.208008 C 2296.719727 3199.208984 2292.592773 3203.460938 2287.335938 3206.973633 C 2282.071289 3210.480469 2275.845703 3213.199219 2268.651367 3215.126953 C 2261.464844 3217.055664 2253.652344 3218.022461 2245.238281 3218.022461 L 2245.238281 3218.022461 Z"/>
        <path id="path12" fill="#ffffff" stroke="none" d="M 2245.758789 3451.666992 C 2259.097656 3451.666992 2271.548828 3449.738281 2283.128906 3445.878906 C 2294.701172 3442.019531 2304.78418 3436.539063 2313.385742 3429.433594 C 2321.979492 3422.330078 2328.685547 3413.736328 2333.511719 3403.649414 C 2338.337891 3393.561523 2340.746094 3382.379883 2340.746094 3370.101563 C 2340.746094 3357.823242 2338.288086 3346.641602 2333.380859 3336.554688 C 2328.46582 3326.467773 2321.719727 3317.829102 2313.117188 3310.639648 C 2304.523438 3303.445313 2294.391602 3297.876953 2282.730469 3293.931641 C 2271.068359 3289.983398 2258.568359 3288.011719 2245.238281 3288.011719 C 2231.729492 3288.011719 2219.229492 3289.94043 2207.738281 3293.799805 C 2196.255859 3297.65918 2186.212891 3303.140625 2177.619141 3310.245117 C 2169.017578 3317.347656 2162.3125 3325.943359 2157.486328 3336.030273 C 2152.660156 3346.115234 2150.250977 3357.296875 2150.250977 3369.574219 C 2150.250977 3381.855469 2152.708984 3393.037109 2157.616211 3403.12207 C 2162.53125 3413.208984 2169.286133 3421.847656 2177.879883 3429.039063 C 2186.473633 3436.231445 2196.556641 3441.799805 2208.136719 3445.74707 C 2219.717773 3449.695313 2232.257813 3451.666992 2245.758789 3451.666992 L 2245.758789 3451.666992 Z M 2245.238281 3410.095703 C 2236.81543 3410.095703 2229.051758 3409.173828 2221.947266 3407.333008 C 2214.842773 3405.490234 2208.666016 3402.817383 2203.400391 3399.307617 C 2198.135742 3395.799805 2194.058594 3391.589844 2191.168945 3386.676758 C 2188.271484 3381.765625 2186.823242 3376.242188 2186.823242 3370.101563 C 2186.823242 3363.963867 2188.3125 3358.392578 2191.299805 3353.394531 C 2194.277344 3348.395508 2198.404297 3344.141602 2203.661133 3340.633789 C 2208.926758 3337.124023 2215.152344 3334.40625 2222.34668 3332.477539 C 2229.540039 3330.546875 2237.344727 3329.583008 2245.758789 3329.583008 C 2254.181641 3329.583008 2261.986328 3330.503906 2269.180664 3332.34375 C 2276.375 3334.186523 2282.558594 3336.862305 2287.726563 3340.371094 C 2292.90332 3343.878906 2296.939453 3348.086914 2299.835938 3353 C 2302.725586 3357.911133 2304.173828 3363.43457 2304.173828 3369.574219 C 2304.173828 3375.714844 2302.68457 3381.285156 2299.698242 3386.282227 C 2296.719727 3391.283203 2292.592773 3395.535156 2287.335938 3399.044922 C 2282.071289 3402.554688 2275.845703 3405.272461 2268.651367 3407.201172 C 2261.464844 3409.129883 2253.652344 3410.095703 2245.238281 3410.095703 L 2245.238281 3410.095703 Z"/>
        <path id="path13" fill="#ffffff" stroke="none" d="M 315.460938 1903.974609 L 282.314453 1912.395508 L 290.201172 1944.495117 L 145.750977 1944.495117 L 145.750977 1984.488281 L 331.249023 1984.488281 L 331.249023 1956.861328 L 315.460938 1903.974609 L 315.460938 1903.974609 Z"/>
        <path id="path14" fill="#ffffff" stroke="none" d="M 238.109375 2186.560547 C 251.439453 2186.560547 263.890625 2184.631836 275.47168 2180.772461 C 287.042969 2176.911133 297.134766 2171.429688 305.728516 2164.326172 C 314.322266 2157.223633 321.036133 2148.62793 325.853516 2138.541016 C 330.679688 2128.455078 333.087891 2117.273438 333.087891 2104.996094 C 333.087891 2092.71582 330.638672 2081.53418 325.723633 2071.448242 C 320.816406 2061.361328 314.061523 2052.722656 305.459961 2045.53125 C 296.866211 2038.34082 286.742188 2032.770508 275.072266 2028.824219 C 263.410156 2024.876953 250.910156 2022.90332 237.580078 2022.90332 C 224.071289 2022.90332 211.580078 2024.832031 200.088867 2028.693359 C 188.597656 2032.550781 178.555664 2038.032227 169.961914 2045.136719 C 161.368164 2052.241211 154.654297 2060.834961 149.828125 2070.921875 C 145.010742 2081.008789 142.59375 2092.19043 142.59375 2104.46875 C 142.59375 2116.74707 145.050781 2127.928711 149.966797 2138.015625 C 154.874023 2148.102539 161.62793 2156.741211 170.22168 2163.930664 C 178.81543 2171.125 188.907227 2176.693359 200.479492 2180.640625 C 212.05957 2184.587891 224.600586 2186.560547 238.109375 2186.560547 L 238.109375 2186.560547 Z M 237.580078 2144.990234 C 229.166016 2144.990234 221.402344 2144.066406 214.297852 2142.227539 C 207.193359 2140.383789 201.008789 2137.710938 195.743164 2134.199219 C 190.486328 2130.691406 186.40918 2126.484375 183.511719 2121.570313 C 180.614258 2116.65918 179.166016 2111.135742 179.166016 2104.996094 C 179.166016 2098.855469 180.663086 2093.287109 183.641602 2088.288086 C 186.62793 2083.287109 190.746094 2079.035156 196.011719 2075.52832 C 201.268555 2072.016602 207.494141 2069.299805 214.688477 2067.371094 C 221.881836 2065.44043 229.686523 2064.476563 238.109375 2064.476563 C 246.524414 2064.476563 254.336914 2065.396484 261.522461 2067.237305 C 268.716797 2069.080078 274.901367 2071.755859 280.077148 2075.263672 C 285.245117 2078.770508 289.28125 2082.980469 292.178711 2087.893555 C 295.067383 2092.804688 296.516602 2098.328125 296.516602 2104.46875 C 296.516602 2110.608398 295.026367 2116.177734 292.048828 2121.175781 C 289.061523 2126.174805 284.943359 2130.428711 279.678711 2133.938477 C 274.413086 2137.446289 268.1875 2140.164063 261.001953 2142.092773 C 253.807617 2144.023438 246.00293 2144.990234 237.580078 2144.990234 L 237.580078 2144.990234 Z"/>
        <path id="path15" fill="#ffffff" stroke="none" d="M 238.109375 2378.634766 C 251.439453 2378.634766 263.890625 2376.704102 275.47168 2372.84668 C 287.042969 2368.985352 297.134766 2363.503906 305.728516 2356.399414 C 314.322266 2349.296875 321.036133 2340.701172 325.853516 2330.614258 C 330.679688 2320.529297 333.087891 2309.347656 333.087891 2297.069336 C 333.087891 2284.789063 330.638672 2273.607422 325.723633 2263.520508 C 320.816406 2253.435547 314.061523 2244.796875 305.459961 2237.604492 C 296.866211 2230.413086 286.742188 2224.844727 275.072266 2220.897461 C 263.410156 2216.950195 250.910156 2214.976563 237.580078 2214.976563 C 224.071289 2214.976563 211.580078 2216.905273 200.088867 2220.767578 C 188.597656 2224.624023 178.555664 2230.105469 169.961914 2237.209961 C 161.368164 2244.314453 154.654297 2252.908203 149.828125 2262.995117 C 145.010742 2273.082031 142.59375 2284.263672 142.59375 2296.540039 C 142.59375 2308.820313 145.050781 2320.001953 149.966797 2330.088867 C 154.874023 2340.176758 161.62793 2348.814453 170.22168 2356.004883 C 178.81543 2363.196289 188.907227 2368.767578 200.479492 2372.711914 C 212.05957 2376.65918 224.600586 2378.634766 238.109375 2378.634766 L 238.109375 2378.634766 Z M 237.580078 2337.061523 C 229.166016 2337.061523 221.402344 2336.139648 214.297852 2334.300781 C 207.193359 2332.457031 201.008789 2329.78418 195.743164 2326.272461 C 190.486328 2322.766602 186.40918 2318.557617 183.511719 2313.644531 C 180.614258 2308.733398 179.166016 2303.208984 179.166016 2297.069336 C 179.166016 2290.928711 180.663086 2285.360352 183.641602 2280.362305 C 186.62793 2275.361328 190.746094 2271.109375 196.011719 2267.601563 C 201.268555 2264.089844 207.494141 2261.37207 214.688477 2259.443359 C 221.881836 2257.514648 229.686523 2256.547852 238.109375 2256.547852 C 246.524414 2256.547852 254.336914 2257.469727 261.522461 2259.311523 C 268.716797 2261.151367 274.901367 2263.829102 280.077148 2267.336914 C 285.245117 2270.844727 289.28125 2275.053711 292.178711 2279.966797 C 295.067383 2284.878906 296.516602 2290.402344 296.516602 2296.540039 C 296.516602 2302.679688 295.026367 2308.250977 292.048828 2313.25 C 289.061523 2318.250977 284.943359 2322.50293 279.678711 2326.012695 C 274.413086 2329.519531 268.1875 2332.237305 261.001953 2334.166016 C 253.807617 2336.097656 246.00293 2337.061523 237.580078 2337.061523 L 237.580078 2337.061523 Z"/>
    </g>
</svg>
