<?xml version="1.0" encoding="UTF-8"?>
<!-- Generated by Pixelmator Pro 3.7 -->
<svg width="2442" height="4365" viewBox="0 0 2442 4365" xmlns="http://www.w3.org/2000/svg">
    <g id="Gruppo">
        <path id="Percorso" fill="#000000" fill-rule="evenodd" stroke="none" d="M 224.302734 684.015625 L 0.914063 681.639648 L 0.914063 4136.539063 L 224.302734 4136.539063 L 224.302734 4112.641602 C 224.302734 4093.541016 239.927734 4077.914063 259.027344 4077.914063 L 62.453125 4077.914063 L 62.453125 740.261719 L 252.085938 742.930664 L 252.085938 739.55957 C 236.28125 736.316406 224.302734 722.256836 224.302734 705.537109 L 224.302734 684.015625 L 224.302734 684.015625 Z"/>
        <path id="path1" fill="#000000" fill-rule="evenodd" stroke="none" d="M 1685.199219 1.103516 L 979.910156 1.103516 C 927.208984 1.103516 884.09375 44.222656 884.09375 96.922852 L 884.09375 474.1875 L 1781.007813 474.1875 L 1781.007813 96.922852 C 1781.007813 44.222656 1737.892578 1.103516 1685.199219 1.103516 L 1685.199219 1.103516 Z"/>
        <path id="path2" fill="#148449" fill-rule="evenodd" stroke="none" d="M 263.488281 740.261719 L 62.453125 740.261719 L 62.453125 4077.914063 L 263.488281 4077.914063 L 2401.623047 4077.914063 L 2401.623047 740.261719 L 263.488281 740.261719 L 263.488281 740.261719 Z"/>
        <path id="path3" fill="#000000" fill-rule="evenodd" stroke="none" d="M 2406.074219 4077.914063 L 259.027344 4077.914063 C 239.927734 4077.914063 224.302734 4093.541016 224.302734 4112.641602 L 224.302734 4329.918945 C 224.302734 4349.018555 239.927734 4364.643555 259.027344 4364.643555 L 2406.074219 4364.643555 C 2425.181641 4364.643555 2440.806641 4349.018555 2440.806641 4329.918945 L 2440.806641 4112.641602 C 2440.806641 4093.541016 2425.181641 4077.914063 2406.074219 4077.914063 L 2406.074219 4077.914063 Z"/>
        <path id="path4" fill="#ffffff" fill-rule="evenodd" stroke="none" d="M 62.453125 740.261719 L 466.441406 740.261719 L 466.441406 4077.914063 L 62.453125 4077.914063 L 62.453125 740.261719 L 62.453125 740.261719 Z"/>
        <path id="path5" fill="#3a2238" fill-rule="evenodd" stroke="none" d="M 466.441406 2285.018555 L 2401.623047 2285.018555 L 2401.623047 2511.233398 L 466.441406 2511.233398 L 466.441406 2285.018555 L 466.441406 2285.018555 Z"/>
        <path id="path6" fill="#100f14" fill-rule="evenodd" stroke="none" d="M 466.441406 702.204102 L 2401.623047 702.204102 L 2401.623047 2285.018555 L 466.441406 2285.018555 L 466.441406 702.204102 L 466.441406 702.204102 Z"/>
        <path id="path7" fill="#b28840" stroke="none" d="M 907.164063 1680.988281 L 702.216797 1918.488281 L 715.5625 1976.665039 L 898.089844 1976.665039 L 898.089844 2057.253906 L 976.548828 2057.253906 L 976.548828 1976.665039 L 1026.720703 1976.665039 L 1026.720703 1909.952148 L 976.548828 1909.952148 L 976.548828 1680.988281 L 907.164063 1680.988281 L 907.164063 1680.988281 Z M 898.089844 1909.952148 L 798.822266 1909.952148 L 898.089844 1793.602539 L 898.089844 1909.952148 L 898.089844 1909.952148 Z"/>
        <path id="path8" fill="#b28840" stroke="none" d="M 1414.1875 1869.922852 C 1414.1875 1842.879883 1410.273438 1817.618164 1402.443359 1794.135742 C 1394.623047 1770.65332 1383.498047 1750.194336 1369.09375 1732.758789 C 1354.681641 1715.323242 1337.25 1701.713867 1316.791016 1691.929688 C 1296.332031 1682.144531 1273.644531 1677.25293 1248.742188 1677.25293 C 1223.830078 1677.25293 1201.150391 1682.233398 1180.691406 1692.196289 C 1160.232422 1702.15918 1142.710938 1715.857422 1128.119141 1733.291992 C 1113.527344 1750.727539 1102.240234 1771.275391 1094.232422 1794.9375 C 1086.224609 1818.59668 1082.220703 1843.948242 1082.220703 1870.989258 C 1082.220703 1898.387695 1086.134766 1923.737305 1093.964844 1947.044922 C 1101.792969 1970.349609 1112.910156 1990.717773 1127.322266 2008.15332 C 1141.726563 2025.588867 1159.166016 2039.200195 1179.625 2048.981445 C 1200.083984 2058.767578 1222.765625 2063.660156 1247.675781 2063.660156 C 1272.578125 2063.660156 1295.257813 2058.677734 1315.716797 2048.716797 C 1336.175781 2038.751953 1353.705078 2025.055664 1368.289063 2007.620117 C 1382.880859 1990.18457 1394.175781 1969.725586 1402.183594 1946.243164 C 1410.183594 1922.758789 1414.1875 1897.319336 1414.1875 1869.922852 L 1414.1875 1869.922852 Z M 1329.861328 1870.989258 C 1329.861328 1888.068359 1327.998047 1903.813477 1324.261719 1918.223633 C 1320.527344 1932.632813 1315.099609 1945.174805 1307.978516 1955.850586 C 1300.865234 1966.523438 1292.328125 1974.795898 1282.367188 1980.666992 C 1272.398438 1986.539063 1261.193359 1989.474609 1248.742188 1989.474609 C 1236.28125 1989.474609 1224.986328 1986.449219 1214.845703 1980.400391 C 1204.707031 1974.351563 1196.080078 1965.990234 1188.966797 1955.317383 C 1181.847656 1944.641602 1176.330078 1932.009766 1172.414063 1917.422852 C 1168.507813 1902.834961 1166.546875 1887.00293 1166.546875 1869.922852 C 1166.546875 1852.842773 1168.410156 1837.010742 1172.154297 1822.422852 C 1175.890625 1807.833984 1181.318359 1795.291016 1188.429688 1784.794922 C 1195.550781 1774.298828 1204.087891 1766.116211 1214.048828 1760.245117 C 1224.009766 1754.373047 1235.216797 1751.439453 1247.675781 1751.439453 C 1260.126953 1751.439453 1271.421875 1754.462891 1281.5625 1760.510742 C 1291.701172 1766.55957 1300.335938 1774.921875 1307.449219 1785.594727 C 1314.5625 1796.271484 1320.080078 1808.902344 1323.994141 1823.489258 C 1327.908203 1838.077148 1329.861328 1853.90918 1329.861328 1870.989258 L 1329.861328 1870.989258 Z"/>
        <path id="path9" fill="#b28840" stroke="none" d="M 1803.802734 1869.922852 C 1803.802734 1842.879883 1799.888672 1817.618164 1792.060547 1794.135742 C 1784.230469 1770.65332 1773.107422 1750.194336 1758.703125 1732.758789 C 1744.289063 1715.323242 1726.857422 1701.713867 1706.398438 1691.929688 C 1685.939453 1682.144531 1663.251953 1677.25293 1638.349609 1677.25293 C 1613.439453 1677.25293 1590.757813 1682.233398 1570.298828 1692.196289 C 1549.839844 1702.15918 1532.318359 1715.857422 1517.726563 1733.291992 C 1503.144531 1750.727539 1491.847656 1771.275391 1483.839844 1794.9375 C 1475.832031 1818.59668 1471.828125 1843.948242 1471.828125 1870.989258 C 1471.828125 1898.387695 1475.744141 1923.737305 1483.572266 1947.044922 C 1491.400391 1970.349609 1502.517578 1990.717773 1516.929688 2008.15332 C 1531.341797 2025.588867 1548.773438 2039.200195 1569.232422 2048.981445 C 1589.691406 2058.767578 1612.373047 2063.660156 1637.283203 2063.660156 C 1662.185547 2063.660156 1684.865234 2058.677734 1705.333984 2048.716797 C 1725.792969 2038.751953 1743.3125 2025.055664 1757.896484 2007.620117 C 1772.488281 1990.18457 1783.783203 1969.725586 1791.791016 1946.243164 C 1799.798828 1922.758789 1803.802734 1897.319336 1803.802734 1869.922852 L 1803.802734 1869.922852 Z M 1719.476563 1870.989258 C 1719.476563 1888.068359 1717.605469 1903.813477 1713.869141 1918.223633 C 1710.134766 1932.632813 1704.707031 1945.174805 1697.59375 1955.850586 C 1690.472656 1966.523438 1681.935547 1974.795898 1671.974609 1980.666992 C 1662.005859 1986.539063 1650.800781 1989.474609 1638.349609 1989.474609 C 1625.898438 1989.474609 1614.601563 1986.449219 1604.455078 1980.400391 C 1594.314453 1974.351563 1585.6875 1965.990234 1578.576172 1955.317383 C 1571.455078 1944.641602 1565.945313 1932.009766 1562.03125 1917.422852 C 1558.117188 1902.834961 1556.154297 1887.00293 1556.154297 1869.922852 C 1556.154297 1852.842773 1558.027344 1837.010742 1561.761719 1822.422852 C 1565.498047 1807.833984 1570.925781 1795.291016 1578.039063 1784.794922 C 1585.158203 1774.298828 1593.695313 1766.116211 1603.65625 1760.245117 C 1613.617188 1754.373047 1624.832031 1751.439453 1637.283203 1751.439453 C 1649.734375 1751.439453 1661.029297 1754.462891 1671.169922 1760.510742 C 1681.310547 1766.55957 1689.943359 1774.921875 1697.056641 1785.594727 C 1704.169922 1796.271484 1709.6875 1808.902344 1713.601563 1823.489258 C 1717.515625 1838.077148 1719.476563 1853.90918 1719.476563 1870.989258 L 1719.476563 1870.989258 Z"/>
        <path id="path10" fill="#b28840" stroke="none" d="M 2193.410156 2057.253906 L 2193.410156 1683.658203 L 2111.216797 1683.658203 L 2111.216797 1831.493164 L 1959.638672 1831.493164 L 1959.638672 1683.658203 L 1877.453125 1683.658203 L 1877.453125 2057.253906 L 1959.638672 2057.253906 L 1959.638672 1907.282227 L 2111.216797 1907.282227 L 2111.216797 2057.253906 L 2193.410156 2057.253906 L 2193.410156 2057.253906 Z"/>
        <path id="path11" fill="#000000" stroke="none" d="M 186.900391 965.038086 L 144.265625 1007.845703 L 150.392578 1032.783203 L 166.734375 1032.783203 C 177.964844 1032.783203 186.607422 1034.740234 192.646484 1038.654297 C 198.693359 1042.569336 201.710938 1048.271484 201.710938 1055.717773 C 201.710938 1062.527344 199.367188 1067.888672 194.689453 1071.761719 C 190.009766 1075.674805 183.921875 1077.631836 176.435547 1077.631836 C 167.238281 1077.631836 159.289063 1075.802734 152.558594 1072.142578 C 145.835938 1068.484375 139.416016 1063.166016 133.287109 1056.185547 L 106.220703 1082.015625 C 113.878906 1091.250977 123.367188 1098.782227 134.6875 1104.525391 C 146.007813 1110.271484 159.751953 1113.123047 175.921875 1113.123047 C 185.792969 1113.123047 194.728516 1111.674805 202.769531 1108.782227 C 210.818359 1105.886719 217.580078 1101.803711 223.15625 1096.526367 C 228.730469 1091.250977 233.027344 1085.037109 236.005859 1077.889648 C 239.025391 1070.740234 240.513672 1062.910156 240.513672 1054.397461 C 240.513672 1046.057617 239.154297 1038.953125 236.388672 1033.080078 C 233.669922 1027.208008 230.048828 1022.272461 225.621094 1018.270508 C 221.154297 1014.270508 216.009766 1011.164063 210.175781 1008.953125 C 204.347656 1006.739258 198.390625 1005.12207 192.263672 1004.100586 L 237.707031 960.953125 L 237.707031 931.335938 L 116.685547 931.335938 L 116.685547 965.038086 L 186.900391 965.038086 L 186.900391 965.038086 Z"/>
        <path id="path12" fill="#000000" stroke="none" d="M 403.160156 947.801758 C 399.246094 944.739258 395.242188 942.015625 391.15625 939.547852 C 387.072266 937.080078 382.814453 935.037109 378.388672 933.333984 C 373.960938 931.631836 369.201172 930.398438 364.097656 929.547852 C 358.986328 928.697266 353.371094 928.270508 347.244141 928.270508 C 333.962891 928.270508 322.390625 930.78125 312.519531 935.803711 C 302.648438 940.823242 294.476563 947.717773 288.007813 956.485352 C 281.537109 965.25 276.728516 975.588867 273.578125 987.504883 C 270.4375 999.420898 268.859375 1012.271484 268.859375 1026.058594 C 268.859375 1043.931641 270.771484 1058.100586 274.603516 1068.570313 C 278.4375 1079.037109 283.580078 1087.504883 290.050781 1093.972656 C 296.349609 1100.271484 303.583984 1105.038086 311.753906 1108.271484 C 319.923828 1111.505859 329.876953 1113.123047 341.628906 1113.123047 C 351.330078 1113.123047 360.345703 1111.631836 368.6875 1108.65332 C 377.029297 1105.674805 384.222656 1101.418945 390.261719 1095.889648 C 396.308594 1090.355469 401.068359 1083.804688 404.560547 1076.227539 C 408.050781 1068.65332 409.792969 1060.271484 409.792969 1051.081055 C 409.792969 1041.71875 408.181641 1033.462891 404.943359 1026.313477 C 401.710938 1019.164063 397.285156 1013.207031 391.669922 1008.442383 C 386.046875 1003.674805 379.414063 1000.05957 371.755859 997.589844 C 364.097656 995.120117 355.837891 993.887695 346.984375 993.887695 C 338.136719 993.887695 330.861328 995.079102 325.158203 997.463867 C 319.453125 999.84668 314.390625 1002.483398 309.962891 1005.37793 C 310.646484 999.546875 311.835938 994.058594 313.537109 988.951172 C 315.246094 983.804688 317.580078 979.376953 320.558594 975.71875 C 323.537109 972.016602 327.111328 969.123047 331.285156 966.952148 C 335.451172 964.824219 340.351563 963.760742 345.966797 963.760742 C 349.708984 963.760742 353.201172 964.102539 356.431641 964.78125 C 359.669922 965.462891 362.730469 966.397461 365.626953 967.59082 C 368.517578 968.78125 371.324219 970.270508 374.050781 972.058594 C 376.777344 973.845703 379.583984 975.845703 382.472656 978.058594 L 403.160156 947.801758 L 403.160156 947.801758 Z M 370.982422 1052.867188 C 370.982422 1060.696289 368.304688 1067.078125 362.902344 1072.016602 C 357.539063 1076.952148 349.962891 1079.421875 340.220703 1079.421875 C 330.480469 1079.421875 322.814453 1076.90918 317.287109 1071.887695 C 311.712891 1066.867188 308.947266 1060.44043 308.947266 1052.611328 C 308.947266 1044.953125 311.623047 1038.695313 317.027344 1033.844727 C 322.390625 1028.995117 329.966797 1026.569336 339.708984 1026.569336 C 349.457031 1026.569336 357.115234 1029.037109 362.648438 1033.972656 C 368.224609 1038.911133 370.982422 1045.208008 370.982422 1052.867188 L 370.982422 1052.867188 Z"/>
        <path id="path13" fill="#000000" fill-rule="evenodd" stroke="none" d="M 2406.074219 453.533203 L 259.027344 453.533203 C 239.927734 453.533203 224.302734 469.158203 224.302734 488.257813 L 224.302734 705.533203 C 224.302734 724.634766 239.927734 740.261719 259.027344 740.261719 L 2406.074219 740.261719 C 2425.181641 740.261719 2440.806641 724.634766 2440.806641 705.533203 L 2440.806641 488.257813 C 2440.806641 469.158203 2425.181641 453.533203 2406.074219 453.533203 L 2406.074219 453.533203 Z"/>
    </g>
</svg>
