<?xml version="1.0" encoding="UTF-8"?>
<!-- Generated by Pixelmator Pro 3.7 -->
<svg width="2441" height="4365" viewBox="0 0 2441 4365" xmlns="http://www.w3.org/2000/svg">
    <g id="Gruppo">
        <path id="Percorso" fill="#000000" fill-rule="evenodd" stroke="none" d="M 223.916504 684.015625 L 0.531738 681.639648 L 0.531738 4136.539063 L 223.916504 4136.539063 L 223.916504 4112.641602 C 223.916504 4093.541016 239.543457 4077.914063 258.641113 4077.914063 L 62.069336 4077.914063 L 62.069336 740.261719 L 251.697266 742.930664 L 251.697266 739.55957 C 235.893555 736.316406 223.916504 722.256836 223.916504 705.537109 L 223.916504 684.015625 L 223.916504 684.015625 Z"/>
        <path id="path1" fill="#000000" fill-rule="evenodd" stroke="none" d="M 1684.80957 1.103516 L 979.523438 1.103516 C 926.825195 1.103516 883.708496 44.222656 883.708496 96.922852 L 883.708496 474.1875 L 1780.624023 474.1875 L 1780.624023 96.922852 C 1780.624023 44.222656 1737.508789 1.103516 1684.80957 1.103516 L 1684.80957 1.103516 Z"/>
        <path id="path2" fill="#148449" fill-rule="evenodd" stroke="none" d="M 263.09668 740.261719 L 62.069336 740.261719 L 62.069336 4077.914063 L 263.09668 4077.914063 L 2401.233398 4077.914063 L 2401.233398 740.261719 L 263.09668 740.261719 L 263.09668 740.261719 Z"/>
        <path id="path3" fill="#000000" fill-rule="evenodd" stroke="none" d="M 2405.691406 4077.914063 L 258.643066 4077.914063 C 239.543457 4077.914063 223.916504 4093.541016 223.916504 4112.641602 L 223.916504 4329.918945 C 223.916504 4349.018555 239.543457 4364.643555 258.643066 4364.643555 L 2405.691406 4364.643555 C 2424.791016 4364.643555 2440.417969 4349.018555 2440.417969 4329.918945 L 2440.417969 4112.641602 C 2440.417969 4093.541016 2424.791016 4077.914063 2405.691406 4077.914063 L 2405.691406 4077.914063 Z"/>
        <path id="path4" fill="#ffffff" fill-rule="evenodd" stroke="none" d="M 62.069336 740.261719 L 466.050781 740.261719 L 466.050781 4077.914063 L 62.069336 4077.914063 L 62.069336 740.261719 L 62.069336 740.261719 Z"/>
        <path id="path5" fill="#3a2238" fill-rule="evenodd" stroke="none" d="M 466.050781 2285.018555 L 2401.233398 2285.018555 L 2401.233398 2511.233398 L 466.050781 2511.233398 L 466.050781 2285.018555 L 466.050781 2285.018555 Z"/>
        <path id="path6" fill="#100f14" fill-rule="evenodd" stroke="none" d="M 466.050781 702.204102 L 2401.233398 702.204102 L 2401.233398 2285.018555 L 466.050781 2285.018555 L 466.050781 702.204102 L 466.050781 702.204102 Z"/>
        <path id="path7" fill="#b28840" stroke="none" d="M 906.777832 1680.988281 L 701.831543 1918.488281 L 715.174316 1976.665039 L 897.705566 1976.665039 L 897.705566 2057.253906 L 976.160156 2057.253906 L 976.160156 1976.665039 L 1026.327148 1976.665039 L 1026.327148 1909.952148 L 976.160156 1909.952148 L 976.160156 1680.988281 L 906.777832 1680.988281 L 906.777832 1680.988281 Z M 897.705566 1909.952148 L 798.434082 1909.952148 L 897.705566 1793.602539 L 897.705566 1909.952148 L 897.705566 1909.952148 Z"/>
        <path id="path8" fill="#b28840" stroke="none" d="M 1413.802734 1869.922852 C 1413.802734 1842.879883 1409.888672 1817.618164 1402.061523 1794.135742 C 1394.235352 1770.65332 1383.114258 1750.194336 1368.706055 1732.758789 C 1354.292969 1715.323242 1336.861328 1701.713867 1316.40332 1691.929688 C 1295.943848 1682.144531 1273.259277 1677.25293 1248.353027 1677.25293 C 1223.446289 1677.25293 1200.761719 1682.233398 1180.302734 1692.196289 C 1159.845703 1702.15918 1142.322266 1715.857422 1127.734863 1733.291992 C 1113.145508 1750.727539 1101.848145 1771.275391 1093.844238 1794.9375 C 1085.835938 1818.59668 1081.834473 1843.948242 1081.834473 1870.989258 C 1081.834473 1898.387695 1085.74707 1923.737305 1093.578125 1947.044922 C 1101.404297 1970.349609 1112.522949 1990.717773 1126.933594 2008.15332 C 1141.341309 2025.588867 1158.777344 2039.200195 1179.236816 2048.981445 C 1199.695313 2058.767578 1222.378418 2063.660156 1247.286621 2063.660156 C 1272.192871 2063.660156 1294.873535 2058.677734 1315.332031 2048.716797 C 1335.791992 2038.751953 1353.317383 2025.055664 1367.904297 2007.620117 C 1382.492188 1990.18457 1393.789063 1969.725586 1401.794922 1946.243164 C 1409.798828 1922.758789 1413.802734 1897.319336 1413.802734 1869.922852 L 1413.802734 1869.922852 Z M 1329.476563 1870.989258 C 1329.476563 1888.068359 1327.608398 1903.813477 1323.874023 1918.223633 C 1320.138672 1932.632813 1314.709961 1945.174805 1307.593262 1955.850586 C 1300.479004 1966.523438 1291.939941 1974.795898 1281.977051 1980.666992 C 1272.01416 1986.539063 1260.806152 1989.474609 1248.353027 1989.474609 C 1235.899414 1989.474609 1224.602051 1986.449219 1214.462402 1980.400391 C 1204.322266 1974.351563 1195.693848 1965.990234 1188.577148 1955.317383 C 1181.460449 1944.641602 1175.944824 1932.009766 1172.030762 1917.422852 C 1168.118164 1902.834961 1166.163086 1887.00293 1166.163086 1869.922852 C 1166.163086 1852.842773 1168.02832 1837.010742 1171.765625 1822.422852 C 1175.500977 1807.833984 1180.929199 1795.291016 1188.043945 1784.794922 C 1195.158203 1774.298828 1203.699707 1766.116211 1213.660156 1760.245117 C 1223.625488 1754.373047 1234.831055 1751.439453 1247.286621 1751.439453 C 1259.740234 1751.439453 1271.035645 1754.462891 1281.177246 1760.510742 C 1291.317383 1766.55957 1299.943848 1774.921875 1307.060547 1785.594727 C 1314.176758 1796.271484 1319.69043 1808.902344 1323.607422 1823.489258 C 1327.519531 1838.077148 1329.476563 1853.90918 1329.476563 1870.989258 L 1329.476563 1870.989258 Z"/>
        <path id="path9" fill="#b28840" stroke="none" d="M 1803.412109 1869.922852 C 1803.412109 1842.879883 1799.498047 1817.618164 1791.670898 1794.135742 C 1783.842773 1770.65332 1772.723633 1750.194336 1758.313477 1732.758789 C 1743.90332 1715.323242 1726.469727 1701.713867 1706.010742 1691.929688 C 1685.551758 1682.144531 1662.868164 1677.25293 1637.962891 1677.25293 C 1613.053711 1677.25293 1590.373047 1682.233398 1569.915039 1692.196289 C 1549.455078 1702.15918 1531.929688 1715.857422 1517.342773 1733.291992 C 1502.755859 1750.727539 1491.458008 1771.275391 1483.452148 1794.9375 C 1475.446289 1818.59668 1471.444336 1843.948242 1471.444336 1870.989258 C 1471.444336 1898.387695 1475.358398 1923.737305 1483.185547 1947.044922 C 1491.011719 1970.349609 1502.132813 1990.717773 1516.541016 2008.15332 C 1530.954102 2025.588867 1548.388672 2039.200195 1568.84668 2048.981445 C 1589.305664 2058.767578 1611.988281 2063.660156 1636.894531 2063.660156 C 1661.800781 2063.660156 1684.483398 2058.677734 1704.942383 2048.716797 C 1725.401367 2038.751953 1742.926758 2025.055664 1757.511719 2007.620117 C 1772.101563 1990.18457 1783.399414 1969.725586 1791.40332 1946.243164 C 1799.40918 1922.758789 1803.412109 1897.319336 1803.412109 1869.922852 L 1803.412109 1869.922852 Z M 1719.085938 1870.989258 C 1719.085938 1888.068359 1717.21875 1903.813477 1713.481445 1918.223633 C 1709.746094 1932.632813 1704.320313 1945.174805 1697.205078 1955.850586 C 1690.088867 1966.523438 1681.547852 1974.795898 1671.586914 1980.666992 C 1661.624023 1986.539063 1650.416016 1989.474609 1637.962891 1989.474609 C 1625.509766 1989.474609 1614.211914 1986.449219 1604.069336 1980.400391 C 1593.929688 1974.351563 1585.303711 1965.990234 1578.186523 1955.317383 C 1571.070313 1944.641602 1565.554688 1932.009766 1561.642578 1917.422852 C 1557.727539 1902.834961 1555.770508 1887.00293 1555.770508 1869.922852 C 1555.770508 1852.842773 1557.638672 1837.010742 1561.374023 1822.422852 C 1565.111328 1807.833984 1570.537109 1795.291016 1577.65332 1784.794922 C 1584.768555 1774.298828 1593.307617 1766.116211 1603.270508 1760.245117 C 1613.232422 1754.373047 1624.441406 1751.439453 1636.894531 1751.439453 C 1649.347656 1751.439453 1660.643555 1754.462891 1670.785156 1760.510742 C 1680.924805 1766.55957 1689.552734 1774.921875 1696.669922 1785.594727 C 1703.786133 1796.271484 1709.300781 1808.902344 1713.214844 1823.489258 C 1717.128906 1838.077148 1719.085938 1853.90918 1719.085938 1870.989258 L 1719.085938 1870.989258 Z"/>
        <path id="path10" fill="#b28840" stroke="none" d="M 2193.022461 2057.253906 L 2193.022461 1683.658203 L 2110.828125 1683.658203 L 2110.828125 1831.493164 L 1959.254883 1831.493164 L 1959.254883 1683.658203 L 1877.063477 1683.658203 L 1877.063477 2057.253906 L 1959.254883 2057.253906 L 1959.254883 1907.282227 L 2110.828125 1907.282227 L 2110.828125 2057.253906 L 2193.022461 2057.253906 L 2193.022461 2057.253906 Z"/>
        <path id="path11" fill="#000000" stroke="none" d="M 186.51416 965.038086 L 143.876953 1007.845703 L 150.00293 1032.783203 L 166.34375 1032.783203 C 177.576172 1032.783203 186.214844 1034.740234 192.259277 1038.654297 C 198.299805 1042.569336 201.323242 1048.271484 201.323242 1055.717773 C 201.323242 1062.527344 198.981445 1067.888672 194.299805 1071.761719 C 189.620605 1075.674805 183.535645 1077.631836 176.046387 1077.631836 C 166.854492 1077.631836 158.897461 1075.802734 152.17334 1072.142578 C 145.45166 1068.484375 139.026367 1063.166016 132.896484 1056.185547 L 105.833496 1082.015625 C 113.493652 1091.250977 122.982422 1098.782227 134.300293 1104.525391 C 145.620605 1110.271484 159.365723 1113.123047 175.535645 1113.123047 C 185.407227 1113.123047 194.342773 1111.674805 202.387207 1108.782227 C 210.429688 1105.886719 217.196289 1101.803711 222.769043 1096.526367 C 228.343262 1091.250977 232.64209 1085.037109 235.620605 1077.889648 C 238.64209 1070.740234 240.131348 1062.910156 240.131348 1054.397461 C 240.131348 1046.057617 238.77002 1038.953125 236.003418 1033.080078 C 233.279297 1027.208008 229.663574 1022.272461 225.236816 1018.270508 C 220.769043 1014.270508 215.621582 1011.164063 209.790527 1008.953125 C 203.959961 1006.739258 198.00293 1005.12207 191.875 1004.100586 L 237.321777 960.953125 L 237.321777 931.335938 L 116.30127 931.335938 L 116.30127 965.038086 L 186.51416 965.038086 L 186.51416 965.038086 Z"/>
        <path id="path12" fill="#000000" stroke="none" d="M 402.771484 947.801758 C 398.853027 944.739258 394.853516 942.015625 390.771973 939.547852 C 386.685059 937.080078 382.428711 935.037109 378.003418 933.333984 C 373.578613 931.631836 368.811523 930.398438 363.705078 929.547852 C 358.598633 928.697266 352.981445 928.270508 346.855469 928.270508 C 333.578125 928.270508 322.003906 930.78125 312.130371 935.803711 C 302.258789 940.823242 294.088379 947.717773 287.620605 956.485352 C 281.152832 965.25 276.343262 975.588867 273.193848 987.504883 C 270.044434 999.420898 268.472168 1012.271484 268.472168 1026.058594 C 268.472168 1043.931641 270.38623 1058.100586 274.217285 1068.570313 C 278.04834 1079.037109 283.195801 1087.504883 289.663574 1093.972656 C 295.959961 1100.271484 303.194824 1105.038086 311.365234 1108.271484 C 319.536133 1111.505859 329.492676 1113.123047 341.238281 1113.123047 C 350.94043 1113.123047 359.961426 1111.631836 368.303223 1108.65332 C 376.640625 1105.674805 383.834473 1101.418945 389.876953 1095.889648 C 395.919434 1090.355469 400.684082 1083.804688 404.175293 1076.227539 C 407.662598 1068.65332 409.408203 1060.271484 409.408203 1051.081055 C 409.408203 1041.71875 407.791016 1033.462891 404.558105 1026.313477 C 401.323242 1019.164063 396.897949 1013.207031 391.280762 1008.442383 C 385.663574 1003.674805 379.024902 1000.05957 371.367188 997.589844 C 363.705078 995.120117 355.449219 993.887695 346.599121 993.887695 C 337.749023 993.887695 330.47168 995.079102 324.770996 997.463867 C 319.067871 999.84668 314.001953 1002.483398 309.579102 1005.37793 C 310.258789 999.546875 311.450684 994.058594 313.151855 988.951172 C 314.854492 983.804688 317.196289 979.376953 320.174805 975.71875 C 323.15332 972.016602 326.728027 969.123047 330.896484 966.952148 C 335.067383 964.824219 339.962402 963.760742 345.57959 963.760742 C 349.323242 963.760742 352.8125 964.102539 356.047363 964.78125 C 359.280273 965.462891 362.346191 966.397461 365.239258 967.59082 C 368.132324 968.78125 370.939941 970.270508 373.662109 972.058594 C 376.388184 973.845703 379.195801 975.845703 382.088867 978.058594 L 402.771484 947.801758 L 402.771484 947.801758 Z M 370.598145 1052.867188 C 370.598145 1060.696289 367.918457 1067.078125 362.515137 1072.016602 C 357.151855 1076.952148 349.577637 1079.421875 339.834473 1079.421875 C 330.088867 1079.421875 322.429199 1076.90918 316.897461 1071.887695 C 311.324707 1066.867188 308.557617 1060.44043 308.557617 1052.611328 C 308.557617 1044.953125 311.239258 1038.695313 316.643066 1033.844727 C 322.003906 1028.995117 329.578125 1026.569336 339.32373 1026.569336 C 349.068848 1026.569336 356.726563 1029.037109 362.260742 1033.972656 C 367.833008 1038.911133 370.598145 1045.208008 370.598145 1052.867188 L 370.598145 1052.867188 Z"/>
        <path id="path13" fill="#000000" fill-rule="evenodd" stroke="none" d="M 2405.691406 453.533203 L 258.643066 453.533203 C 239.543457 453.533203 223.916504 469.158203 223.916504 488.257813 L 223.916504 705.533203 C 223.916504 724.634766 239.543457 740.261719 258.643066 740.261719 L 2405.691406 740.261719 C 2424.791016 740.261719 2440.417969 724.634766 2440.417969 705.533203 L 2440.417969 488.257813 C 2440.417969 469.158203 2424.791016 453.533203 2405.691406 453.533203 L 2405.691406 453.533203 Z"/>
        <path id="path14" fill="#000000" fill-rule="evenodd" stroke="none" d="M 223.918457 684.015625 L 0.533691 681.639648 L 0.533691 4136.539063 L 223.918457 4136.539063 L 223.918457 4112.641602 C 223.918457 4093.541016 239.543457 4077.916016 258.643066 4077.916016 L 62.069336 4077.916016 L 62.069336 740.261719 L 251.697266 742.932617 L 251.697266 739.55957 C 235.895508 736.316406 223.918457 722.256836 223.918457 705.537109 L 223.918457 684.015625 L 223.918457 684.015625 Z"/>
        <path id="path15" fill="#000000" fill-rule="evenodd" stroke="none" d="M 1684.80957 1.105469 L 979.525391 1.105469 C 926.827148 1.105469 883.708496 44.222656 883.708496 96.922852 L 883.708496 474.1875 L 1780.625977 474.1875 L 1780.625977 96.922852 C 1780.625977 44.222656 1737.508789 1.105469 1684.80957 1.105469 L 1684.80957 1.105469 Z"/>
        <path id="path16" fill="#000000" fill-rule="evenodd" stroke="none" d="M 263.098633 740.261719 L 62.069336 740.261719 L 62.069336 4077.916016 L 263.098633 4077.916016 L 2401.233398 4077.916016 L 2401.233398 740.261719 L 263.098633 740.261719 L 263.098633 740.261719 Z"/>
        <path id="path17" fill="#000000" fill-rule="evenodd" stroke="none" d="M 2405.691406 4077.916016 L 258.643066 4077.916016 C 239.543457 4077.916016 223.918457 4093.541016 223.918457 4112.641602 L 223.918457 4329.918945 C 223.918457 4349.018555 239.543457 4364.645508 258.643066 4364.645508 L 2405.691406 4364.645508 C 2424.792969 4364.645508 2440.417969 4349.018555 2440.417969 4329.918945 L 2440.417969 4112.641602 C 2440.417969 4093.541016 2424.792969 4077.916016 2405.691406 4077.916016 L 2405.691406 4077.916016 Z"/>
        <path id="path18" fill="#e19c03" fill-rule="evenodd" stroke="none" d="M 412.305176 1101.024414 L 2055.331055 1101.024414 L 2055.331055 4077.914063 L 412.305176 4077.914063 L 412.305176 1101.024414 L 412.305176 1101.024414 Z"/>
        <path id="path19" fill="#ffffff" stroke="none" d="M 1700.649414 970.095703 L 1678.483398 947.702148 C 1672.298828 953.433594 1666.077148 957.956055 1659.819336 961.274414 C 1653.561523 964.59082 1645.90918 966.250977 1636.859375 966.250977 C 1630.072266 966.250977 1623.853516 964.929688 1618.197266 962.291016 C 1612.541016 959.652344 1607.717773 956.070313 1603.719727 951.546875 C 1599.725586 947.022461 1596.594727 941.743164 1594.333008 935.712891 C 1592.072266 929.680664 1590.94043 923.271484 1590.94043 916.484375 L 1590.94043 916.033203 C 1590.94043 909.246094 1592.072266 902.875977 1594.333008 896.918945 C 1596.594727 890.961914 1599.762695 885.720703 1603.833984 881.196289 C 1607.904297 876.672852 1612.769531 873.128906 1618.424805 870.56543 C 1624.079102 868.001953 1630.225586 866.720703 1636.859375 866.720703 C 1644.853516 866.720703 1652.052734 868.303711 1658.463867 871.470703 C 1664.871094 874.636719 1671.166992 879.010742 1677.350586 884.589844 L 1699.518555 859.02832 C 1695.899414 855.411133 1691.978516 852.092773 1687.756836 849.075195 C 1683.533203 846.060547 1678.935547 843.49707 1673.957031 841.384766 C 1668.982422 839.273438 1663.438477 837.615234 1657.331055 836.408203 C 1651.223633 835.202148 1644.474609 834.597656 1637.084961 834.597656 C 1624.870117 834.597656 1613.712891 836.746094 1603.607422 841.046875 C 1593.504883 845.34375 1584.833008 851.223633 1577.594727 858.69043 C 1570.355469 866.155273 1564.700195 874.824219 1560.628906 884.703125 C 1556.555664 894.579102 1554.521484 905.174805 1554.521484 916.484375 L 1554.521484 916.938477 C 1554.521484 928.248047 1556.555664 938.87793 1560.628906 948.831055 C 1564.700195 958.78418 1570.355469 967.417969 1577.594727 974.732422 C 1584.833008 982.046875 1593.429688 987.816406 1603.381836 992.038086 C 1613.334961 996.259766 1624.117188 998.371094 1635.728516 998.371094 C 1643.420898 998.371094 1650.356445 997.730469 1656.540039 996.448242 C 1662.722656 995.166992 1668.415039 993.28125 1673.617188 990.792969 C 1678.821289 988.304688 1683.611328 985.326172 1687.980469 981.859375 C 1692.355469 978.390625 1696.576172 974.469727 1700.649414 970.095703 L 1700.649414 970.095703 Z"/>
        <path id="path20" fill="#ffffff" stroke="none" d="M 1790.453125 942.045898 L 1790.453125 909.021484 L 1720.783203 909.021484 L 1720.783203 942.045898 L 1790.453125 942.045898 L 1790.453125 942.045898 Z"/>
        <path id="path21" fill="#ffffff" stroke="none" d="M 1895.638672 836.180664 L 1808.775391 936.84375 L 1814.430664 961.498047 L 1891.792969 961.498047 L 1891.792969 995.657227 L 1925.045898 995.657227 L 1925.045898 961.498047 L 1946.307617 961.498047 L 1946.307617 933.222656 L 1925.045898 933.222656 L 1925.045898 836.180664 L 1895.638672 836.180664 L 1895.638672 836.180664 Z M 1891.792969 933.222656 L 1849.719727 933.222656 L 1891.792969 883.910156 L 1891.792969 933.222656 L 1891.792969 933.222656 Z"/>
        <path id="path22" fill="#ffffff" stroke="none" d="M 1963.045898 849.754883 L 1970.285156 878.255859 L 1997.882813 871.470703 L 1997.882813 995.657227 L 2032.265625 995.657227 L 2032.265625 836.180664 L 2008.514648 836.180664 L 1963.045898 849.754883 L 1963.045898 849.754883 Z"/>
        <path id="path23" fill="#000000" fill-rule="evenodd" stroke="none" d="M 2405.691406 453.533203 L 258.643066 453.533203 C 239.543457 453.533203 223.918457 469.158203 223.918457 488.259766 L 223.918457 705.537109 C 223.918457 724.634766 239.543457 740.261719 258.643066 740.261719 L 2405.691406 740.261719 C 2424.792969 740.261719 2440.417969 724.634766 2440.417969 705.537109 L 2440.417969 488.259766 C 2440.417969 469.158203 2424.792969 453.533203 2405.691406 453.533203 L 2405.691406 453.533203 Z"/>
        <path id="path24" fill="#ffffff" stroke="none" d="M 2323.425781 2977.008789 L 2290.273438 2985.427734 L 2298.166016 3017.52832 L 2153.71582 3017.52832 L 2153.71582 3057.522461 L 2339.211914 3057.522461 L 2339.211914 3029.895508 L 2323.425781 2977.008789 L 2323.425781 2977.008789 Z"/>
        <path id="path25" fill="#ffffff" stroke="none" d="M 2246.070313 3259.59375 C 2259.400391 3259.59375 2271.855469 3257.665039 2283.431641 3253.807617 C 2295.007813 3249.946289 2305.094727 3244.464844 2313.688477 3237.360352 C 2322.28418 3230.255859 2328.995117 3221.662109 2333.818359 3211.575195 C 2338.641602 3201.488281 2341.052734 3190.306641 2341.052734 3178.030273 C 2341.052734 3165.75 2338.599609 3154.568359 2333.688477 3144.481445 C 2328.774414 3134.394531 2322.022461 3125.755859 2313.426758 3118.56543 C 2304.830078 3111.374023 2294.703125 3105.803711 2283.037109 3101.858398 C 2271.371094 3097.911133 2258.875 3095.938477 2245.542969 3095.938477 C 2232.036133 3095.938477 2219.540039 3097.867188 2208.048828 3101.725586 C 2196.560547 3105.585938 2186.517578 3111.066406 2177.921875 3118.170898 C 2169.328125 3125.273438 2162.619141 3133.869141 2157.794922 3143.956055 C 2152.970703 3154.043945 2150.55957 3165.222656 2150.55957 3177.503906 C 2150.55957 3189.78125 2153.015625 3200.962891 2157.926758 3211.049805 C 2162.838867 3221.134766 2169.59082 3229.773438 2178.186523 3236.96582 C 2186.780273 3244.157227 2196.867188 3249.728516 2208.444336 3253.674805 C 2220.019531 3257.620117 2232.5625 3259.59375 2246.070313 3259.59375 L 2246.070313 3259.59375 Z M 2245.542969 3218.022461 C 2237.124023 3218.022461 2229.362305 3217.100586 2222.258789 3215.259766 C 2215.15332 3213.418945 2208.970703 3210.743164 2203.708008 3207.233398 C 2198.446289 3203.726563 2194.367188 3199.516602 2191.47168 3194.603516 C 2188.579102 3189.692383 2187.132813 3184.167969 2187.132813 3178.030273 C 2187.132813 3171.890625 2188.624023 3166.321289 2191.606445 3161.321289 C 2194.586914 3156.322266 2198.708984 3152.068359 2203.97168 3148.560547 C 2209.233398 3145.050781 2215.460938 3142.333008 2222.65332 3140.404297 C 2229.844727 3138.475586 2237.651367 3137.508789 2246.070313 3137.508789 C 2254.489258 3137.508789 2262.294922 3138.430664 2269.487305 3140.271484 C 2276.678711 3142.113281 2282.862305 3144.791016 2288.036133 3148.297852 C 2293.209961 3151.805664 2297.246094 3156.014648 2300.139648 3160.925781 C 2303.03418 3165.837891 2304.480469 3171.363281 2304.480469 3177.503906 C 2304.480469 3183.641602 2302.991211 3189.211914 2300.008789 3194.208008 C 2297.026367 3199.208984 2292.904297 3203.460938 2287.640625 3206.973633 C 2282.379883 3210.480469 2276.152344 3213.199219 2268.960938 3215.126953 C 2261.768555 3217.055664 2253.961914 3218.022461 2245.542969 3218.022461 L 2245.542969 3218.022461 Z"/>
        <path id="path26" fill="#ffffff" stroke="none" d="M 2246.070313 3451.666992 C 2259.400391 3451.666992 2271.855469 3449.738281 2283.431641 3445.878906 C 2295.007813 3442.019531 2305.094727 3436.539063 2313.688477 3429.433594 C 2322.28418 3422.330078 2328.995117 3413.736328 2333.818359 3403.649414 C 2338.641602 3393.561523 2341.052734 3382.379883 2341.052734 3370.101563 C 2341.052734 3357.823242 2338.599609 3346.641602 2333.688477 3336.554688 C 2328.774414 3326.467773 2322.022461 3317.829102 2313.426758 3310.639648 C 2304.830078 3303.445313 2294.703125 3297.876953 2283.037109 3293.931641 C 2271.371094 3289.983398 2258.875 3288.011719 2245.542969 3288.011719 C 2232.036133 3288.011719 2219.540039 3289.94043 2208.048828 3293.799805 C 2196.560547 3297.65918 2186.517578 3303.140625 2177.921875 3310.245117 C 2169.328125 3317.347656 2162.619141 3325.943359 2157.794922 3336.030273 C 2152.970703 3346.115234 2150.55957 3357.296875 2150.55957 3369.574219 C 2150.55957 3381.855469 2153.015625 3393.037109 2157.926758 3403.12207 C 2162.838867 3413.208984 2169.59082 3421.847656 2178.186523 3429.039063 C 2186.780273 3436.231445 2196.867188 3441.799805 2208.444336 3445.74707 C 2220.019531 3449.695313 2232.5625 3451.666992 2246.070313 3451.666992 L 2246.070313 3451.666992 Z M 2245.542969 3410.095703 C 2237.124023 3410.095703 2229.362305 3409.173828 2222.258789 3407.333008 C 2215.15332 3405.490234 2208.970703 3402.817383 2203.708008 3399.307617 C 2198.446289 3395.799805 2194.367188 3391.589844 2191.47168 3386.676758 C 2188.579102 3381.765625 2187.132813 3376.242188 2187.132813 3370.101563 C 2187.132813 3363.963867 2188.624023 3358.392578 2191.606445 3353.394531 C 2194.586914 3348.395508 2198.708984 3344.141602 2203.97168 3340.633789 C 2209.233398 3337.124023 2215.460938 3334.40625 2222.65332 3332.477539 C 2229.844727 3330.546875 2237.651367 3329.583008 2246.070313 3329.583008 C 2254.489258 3329.583008 2262.294922 3330.503906 2269.487305 3332.34375 C 2276.678711 3334.186523 2282.862305 3336.862305 2288.036133 3340.371094 C 2293.209961 3343.878906 2297.246094 3348.086914 2300.139648 3353 C 2303.03418 3357.911133 2304.480469 3363.43457 2304.480469 3369.574219 C 2304.480469 3375.714844 2302.991211 3381.285156 2300.008789 3386.282227 C 2297.026367 3391.283203 2292.904297 3395.535156 2287.640625 3399.044922 C 2282.379883 3402.554688 2276.152344 3405.272461 2268.960938 3407.201172 C 2261.768555 3409.129883 2253.961914 3410.095703 2245.542969 3410.095703 L 2245.542969 3410.095703 Z"/>
        <path id="path27" fill="#ffffff" stroke="none" d="M 315.77002 1903.974609 L 282.617676 1912.395508 L 290.511719 1944.495117 L 146.062012 1944.495117 L 146.062012 1984.488281 L 331.555664 1984.488281 L 331.555664 1956.861328 L 315.77002 1903.974609 L 315.77002 1903.974609 Z"/>
        <path id="path28" fill="#ffffff" stroke="none" d="M 238.414063 2186.560547 C 251.746094 2186.560547 264.20166 2184.631836 275.777832 2180.772461 C 287.352051 2176.911133 297.439453 2171.429688 306.035156 2164.326172 C 314.628906 2157.223633 321.338379 2148.62793 326.164551 2138.541016 C 330.986328 2128.455078 333.396973 2117.273438 333.396973 2104.996094 C 333.396973 2092.71582 330.941406 2081.53418 326.030273 2071.448242 C 321.118652 2061.361328 314.366211 2052.722656 305.770508 2045.53125 C 297.176758 2038.34082 287.046875 2032.770508 275.381348 2028.824219 C 263.717285 2024.876953 251.219238 2022.90332 237.887207 2022.90332 C 224.382324 2022.90332 211.884277 2024.832031 200.393555 2028.693359 C 188.904297 2032.550781 178.862305 2038.032227 170.268555 2045.136719 C 161.672852 2052.241211 154.962891 2060.834961 150.13916 2070.921875 C 145.31543 2081.008789 142.904297 2092.19043 142.904297 2104.46875 C 142.904297 2116.74707 145.359863 2127.928711 150.269043 2138.015625 C 155.182617 2148.102539 161.935059 2156.741211 170.530762 2163.930664 C 179.126465 2171.125 189.211914 2176.693359 200.788086 2180.640625 C 212.366211 2184.587891 224.907227 2186.560547 238.414063 2186.560547 L 238.414063 2186.560547 Z M 237.887207 2144.990234 C 229.468262 2144.990234 221.70459 2144.066406 214.602539 2142.227539 C 207.498047 2140.383789 201.314941 2137.710938 196.053711 2134.199219 C 190.790527 2130.691406 186.711426 2126.484375 183.818359 2121.570313 C 180.925293 2116.65918 179.476563 2111.135742 179.476563 2104.996094 C 179.476563 2098.855469 180.967773 2093.287109 183.950684 2088.288086 C 186.931152 2083.287109 191.052734 2079.035156 196.313965 2075.52832 C 201.577637 2072.016602 207.805176 2069.299805 214.99707 2067.371094 C 222.188965 2065.44043 229.995605 2064.476563 238.414063 2064.476563 C 246.834961 2064.476563 254.63916 2065.396484 261.831543 2067.237305 C 269.023438 2069.080078 275.206055 2071.755859 280.379883 2075.263672 C 285.555664 2078.770508 289.590332 2082.980469 292.485352 2087.893555 C 295.378418 2092.804688 296.824707 2098.328125 296.824707 2104.46875 C 296.824707 2110.608398 295.335449 2116.177734 292.353027 2121.175781 C 289.370605 2126.174805 285.248535 2130.428711 279.985352 2133.938477 C 274.724121 2137.446289 268.498535 2140.164063 261.304199 2142.092773 C 254.112305 2144.023438 246.306152 2144.990234 237.887207 2144.990234 L 237.887207 2144.990234 Z"/>
        <path id="path29" fill="#ffffff" stroke="none" d="M 238.414063 2378.634766 C 251.746094 2378.634766 264.20166 2376.704102 275.777832 2372.84668 C 287.352051 2368.985352 297.439453 2363.503906 306.035156 2356.399414 C 314.628906 2349.296875 321.338379 2340.701172 326.164551 2330.614258 C 330.986328 2320.529297 333.396973 2309.347656 333.396973 2297.069336 C 333.396973 2284.789063 330.941406 2273.607422 326.030273 2263.520508 C 321.118652 2253.435547 314.366211 2244.796875 305.770508 2237.604492 C 297.176758 2230.413086 287.046875 2224.844727 275.381348 2220.897461 C 263.717285 2216.950195 251.219238 2214.976563 237.887207 2214.976563 C 224.382324 2214.976563 211.884277 2216.905273 200.393555 2220.767578 C 188.904297 2224.624023 178.862305 2230.105469 170.268555 2237.209961 C 161.672852 2244.314453 154.962891 2252.908203 150.13916 2262.995117 C 145.31543 2273.082031 142.904297 2284.263672 142.904297 2296.540039 C 142.904297 2308.820313 145.359863 2320.001953 150.269043 2330.088867 C 155.182617 2340.176758 161.935059 2348.814453 170.530762 2356.004883 C 179.126465 2363.196289 189.211914 2368.767578 200.788086 2372.711914 C 212.366211 2376.65918 224.907227 2378.634766 238.414063 2378.634766 L 238.414063 2378.634766 Z M 237.887207 2337.061523 C 229.468262 2337.061523 221.70459 2336.139648 214.602539 2334.300781 C 207.498047 2332.457031 201.314941 2329.78418 196.053711 2326.272461 C 190.790527 2322.766602 186.711426 2318.557617 183.818359 2313.644531 C 180.925293 2308.733398 179.476563 2303.208984 179.476563 2297.069336 C 179.476563 2290.928711 180.967773 2285.360352 183.950684 2280.362305 C 186.931152 2275.361328 191.052734 2271.109375 196.313965 2267.601563 C 201.577637 2264.089844 207.805176 2261.37207 214.99707 2259.443359 C 222.188965 2257.514648 229.995605 2256.547852 238.414063 2256.547852 C 246.834961 2256.547852 254.63916 2257.469727 261.831543 2259.311523 C 269.023438 2261.151367 275.206055 2263.829102 280.379883 2267.336914 C 285.555664 2270.844727 289.590332 2275.053711 292.485352 2279.966797 C 295.378418 2284.878906 296.824707 2290.402344 296.824707 2296.540039 C 296.824707 2302.679688 295.335449 2308.250977 292.353027 2313.25 C 289.370605 2318.250977 285.248535 2322.50293 279.985352 2326.012695 C 274.724121 2329.519531 268.498535 2332.237305 261.304199 2334.166016 C 254.112305 2336.097656 246.306152 2337.061523 237.887207 2337.061523 L 237.887207 2337.061523 Z"/>
        <path id="path30" fill="#000000" fill-rule="evenodd" stroke="none" d="M 223.918457 684.015625 L 0.533691 681.639648 L 0.533691 4136.539063 L 223.918457 4136.539063 L 223.918457 4112.641602 C 223.918457 4093.541016 239.543457 4077.914063 258.643066 4077.914063 L 62.069336 4077.914063 L 62.069336 740.261719 L 251.697266 742.930664 L 251.697266 739.55957 C 235.895508 736.316406 223.918457 722.256836 223.918457 705.537109 L 223.918457 684.015625 L 223.918457 684.015625 Z"/>
        <path id="path31" fill="#000000" fill-rule="evenodd" stroke="none" d="M 1684.80957 1.103516 L 979.523438 1.103516 C 926.827148 1.103516 883.708496 44.222656 883.708496 96.922852 L 883.708496 474.1875 L 1780.625977 474.1875 L 1780.625977 96.922852 C 1780.625977 44.222656 1737.508789 1.103516 1684.80957 1.103516 L 1684.80957 1.103516 Z"/>
        <path id="path32" fill="#068a3e" fill-rule="evenodd" stroke="none" d="M 263.09668 740.261719 L 62.069336 740.261719 L 62.069336 4077.914063 L 263.09668 4077.914063 L 2401.233398 4077.914063 L 2401.233398 740.261719 L 263.09668 740.261719 L 263.09668 740.261719 Z"/>
        <path id="path33" fill="#000000" fill-rule="evenodd" stroke="none" d="M 2405.691406 4077.914063 L 258.643066 4077.914063 C 239.543457 4077.914063 223.916504 4093.541016 223.916504 4112.641602 L 223.916504 4329.918945 C 223.916504 4349.018555 239.543457 4364.643555 258.643066 4364.643555 L 2405.691406 4364.643555 C 2424.792969 4364.643555 2440.417969 4349.018555 2440.417969 4329.918945 L 2440.417969 4112.641602 C 2440.417969 4093.541016 2424.792969 4077.914063 2405.691406 4077.914063 L 2405.691406 4077.914063 Z"/>
        <path id="path34" fill="#ffffff" fill-rule="evenodd" stroke="none" d="M 62.069336 740.261719 L 466.050781 740.261719 L 466.050781 4077.914063 L 62.069336 4077.914063 L 62.069336 740.261719 L 62.069336 740.261719 Z"/>
        <path id="path35" fill="#000000" stroke="none" d="M 186.51416 965.038086 L 143.876953 1007.845703 L 150.00293 1032.783203 L 166.34375 1032.783203 C 177.576172 1032.783203 186.214844 1034.740234 192.259277 1038.654297 C 198.299805 1042.569336 201.323242 1048.271484 201.323242 1055.717773 C 201.323242 1062.527344 198.981445 1067.888672 194.299805 1071.761719 C 189.620605 1075.674805 183.535645 1077.631836 176.046387 1077.631836 C 166.854492 1077.631836 158.897461 1075.802734 152.17334 1072.142578 C 145.45166 1068.484375 139.026367 1063.166016 132.896484 1056.185547 L 105.833496 1082.015625 C 113.493652 1091.250977 122.982422 1098.782227 134.300293 1104.525391 C 145.620605 1110.271484 159.365723 1113.123047 175.535645 1113.123047 C 185.407227 1113.123047 194.342773 1111.674805 202.387207 1108.782227 C 210.429688 1105.886719 217.196289 1101.803711 222.769043 1096.526367 C 228.343262 1091.250977 232.64209 1085.037109 235.620605 1077.889648 C 238.64209 1070.740234 240.131348 1062.910156 240.131348 1054.397461 C 240.131348 1046.057617 238.77002 1038.953125 236.003418 1033.080078 C 233.279297 1027.208008 229.663574 1022.272461 225.236816 1018.270508 C 220.769043 1014.270508 215.621582 1011.164063 209.790527 1008.953125 C 203.959961 1006.739258 198.00293 1005.12207 191.875 1004.100586 L 237.321777 960.953125 L 237.321777 931.335938 L 116.30127 931.335938 L 116.30127 965.038086 L 186.51416 965.038086 L 186.51416 965.038086 Z"/>
        <path id="path36" fill="#000000" stroke="none" d="M 402.771484 947.801758 C 398.853027 944.739258 394.853516 942.015625 390.771973 939.547852 C 386.685059 937.080078 382.428711 935.037109 378.003418 933.333984 C 373.578613 931.631836 368.811523 930.398438 363.705078 929.547852 C 358.598633 928.697266 352.981445 928.270508 346.855469 928.270508 C 333.578125 928.270508 322.003906 930.78125 312.130371 935.803711 C 302.258789 940.823242 294.088379 947.717773 287.620605 956.485352 C 281.152832 965.25 276.343262 975.588867 273.193848 987.504883 C 270.044434 999.420898 268.472168 1012.271484 268.472168 1026.058594 C 268.472168 1043.931641 270.38623 1058.100586 274.217285 1068.570313 C 278.04834 1079.037109 283.195801 1087.504883 289.663574 1093.972656 C 295.959961 1100.271484 303.194824 1105.038086 311.365234 1108.271484 C 319.536133 1111.505859 329.492676 1113.123047 341.238281 1113.123047 C 350.94043 1113.123047 359.961426 1111.631836 368.303223 1108.65332 C 376.640625 1105.674805 383.834473 1101.418945 389.876953 1095.889648 C 395.919434 1090.355469 400.684082 1083.804688 404.175293 1076.227539 C 407.662598 1068.65332 409.408203 1060.271484 409.408203 1051.081055 C 409.408203 1041.71875 407.791016 1033.462891 404.558105 1026.313477 C 401.323242 1019.164063 396.897949 1013.207031 391.280762 1008.442383 C 385.663574 1003.674805 379.024902 1000.05957 371.367188 997.589844 C 363.705078 995.120117 355.449219 993.887695 346.599121 993.887695 C 337.749023 993.887695 330.47168 995.079102 324.770996 997.463867 C 319.067871 999.84668 314.001953 1002.483398 309.579102 1005.37793 C 310.258789 999.546875 311.450684 994.058594 313.151855 988.951172 C 314.854492 983.804688 317.196289 979.376953 320.174805 975.71875 C 323.15332 972.016602 326.728027 969.123047 330.896484 966.952148 C 335.067383 964.824219 339.962402 963.760742 345.57959 963.760742 C 349.323242 963.760742 352.8125 964.102539 356.047363 964.78125 C 359.280273 965.462891 362.346191 966.397461 365.239258 967.59082 C 368.132324 968.78125 370.939941 970.270508 373.662109 972.058594 C 376.388184 973.845703 379.195801 975.845703 382.088867 978.058594 L 402.771484 947.801758 L 402.771484 947.801758 Z M 370.598145 1052.867188 C 370.598145 1060.696289 367.918457 1067.078125 362.515137 1072.016602 C 357.151855 1076.952148 349.577637 1079.421875 339.834473 1079.421875 C 330.088867 1079.421875 322.429199 1076.90918 316.897461 1071.887695 C 311.324707 1066.867188 308.557617 1060.44043 308.557617 1052.611328 C 308.557617 1044.953125 311.239258 1038.695313 316.643066 1033.844727 C 322.003906 1028.995117 329.578125 1026.569336 339.32373 1026.569336 C 349.068848 1026.569336 356.726563 1029.037109 362.260742 1033.972656 C 367.833008 1038.911133 370.598145 1045.208008 370.598145 1052.867188 L 370.598145 1052.867188 Z"/>
        <path id="path37" fill="#000000" fill-rule="evenodd" stroke="none" d="M 2405.691406 453.533203 L 258.643066 453.533203 C 239.543457 453.533203 223.916504 469.158203 223.916504 488.257813 L 223.916504 705.533203 C 223.916504 724.634766 239.543457 740.261719 258.643066 740.261719 L 2405.691406 740.261719 C 2424.792969 740.261719 2440.417969 724.634766 2440.417969 705.533203 L 2440.417969 488.257813 C 2440.417969 469.158203 2424.792969 453.533203 2405.691406 453.533203 L 2405.691406 453.533203 Z"/>
        <path id="path38" fill="#ffffff" fill-rule="evenodd" stroke="none" d="M 574.992676 1419.72168 L 1456.035156 1419.72168 L 1456.035156 4077.914063 L 574.992676 4077.914063 L 574.992676 1419.72168 L 574.992676 1419.72168 Z"/>
        <path id="path39" fill="#a3c9b0" fill-rule="evenodd" stroke="none" d="M 1456.035156 3191.850586 L 1717.967773 3191.850586 L 1717.967773 4077.914063 L 1456.035156 4077.914063 L 1456.035156 3191.850586 L 1456.035156 3191.850586 Z"/>
        <path id="path40" fill="#6ca673" fill-rule="evenodd" stroke="none" d="M 1456.035156 2305.785156 L 1717.967773 2305.785156 L 1717.967773 3191.850586 L 1456.035156 3191.850586 L 1456.035156 2305.785156 L 1456.035156 2305.785156 Z"/>
        <path id="path41" fill="#058b34" fill-rule="evenodd" stroke="none" d="M 1456.035156 1419.72168 L 1717.967773 1419.72168 L 1717.967773 2305.785156 L 1456.035156 2305.785156 L 1456.035156 1419.72168 L 1456.035156 1419.72168 Z"/>
        <path id="path42" fill="#000000" stroke="none" d="M 1087.789551 2794.216797 C 1087.789551 2809.413086 1083.630859 2821.710938 1075.310059 2831.118164 C 1066.98877 2840.522461 1054.781738 2845.225586 1038.499512 2845.225586 C 1030.54248 2845.225586 1023.213867 2844.049805 1016.522949 2841.698242 C 1009.920898 2839.347656 1003.046387 2835.549805 995.992188 2830.304688 C 988.938965 2825.057617 981.519043 2818.274414 973.743164 2809.953125 C 965.967285 2801.634766 957.28418 2791.50293 947.514648 2779.564453 L 844.049316 2653.12793 L 777.936035 2653.12793 L 777.936035 2934.22168 L 850.108398 2934.22168 L 850.108398 2768.713867 L 897.862305 2830.573242 C 910.885742 2847.21582 922.913086 2861.868164 933.948242 2874.53125 C 944.983887 2887.192383 956.108398 2897.59375 967.322266 2905.732422 C 978.536621 2913.87207 990.385254 2920.022461 1002.865723 2924.182617 C 1015.347168 2928.34375 1029.545898 2930.422852 1045.463867 2930.422852 C 1063.19043 2930.422852 1079.289551 2927.438477 1093.758789 2921.46875 C 1108.230469 2915.5 1120.622559 2906.818359 1130.933105 2895.422852 C 1141.240234 2884.02832 1149.199219 2870.279297 1154.810547 2854.179688 C 1160.415527 2838.080078 1163.220703 2819.904297 1163.220703 2799.644531 C 1163.220703 2782.640625 1161.499512 2767.447266 1158.063477 2754.061523 C 1154.537598 2740.676758 1149.47168 2728.46582 1142.688477 2717.432617 C 1135.995117 2706.399414 1127.674316 2696.088867 1117.818848 2686.501953 C 1108.049316 2676.916016 1096.745605 2667.418945 1083.993652 2658.010742 L 1036.780273 2716.619141 C 1054.146973 2730.728516 1066.98877 2743.480469 1075.310059 2754.875977 C 1083.630859 2766.271484 1087.789551 2779.385742 1087.789551 2794.216797 L 1087.789551 2794.216797 Z"/>
        <path id="path43" fill="#000000" stroke="none" d="M 968.408691 3331.442383 C 995.901367 3331.442383 1021.586914 3327.464844 1045.463867 3319.503906 C 1069.34082 3311.546875 1090.141113 3300.239258 1107.870117 3285.588867 C 1125.594238 3270.938477 1139.433594 3253.208984 1149.382324 3232.408203 C 1159.331055 3211.607422 1164.305664 3188.544922 1164.305664 3163.220703 C 1164.305664 3137.897461 1159.241211 3114.833984 1149.109375 3094.033203 C 1138.981934 3073.230469 1125.053711 3055.413086 1107.324707 3040.579102 C 1089.600586 3025.748047 1068.706055 3014.260742 1044.649902 3006.123047 C 1020.592285 2997.982422 994.816895 2993.912109 967.322266 2993.912109 C 939.46582 2993.912109 913.690918 2997.891602 889.993164 3005.850586 C 866.296875 3013.808594 845.585938 3025.115234 827.861328 3039.767578 C 810.132324 3054.417969 796.297852 3072.146484 786.347168 3092.947266 C 776.398438 3113.748047 771.424316 3136.811523 771.424316 3162.134766 C 771.424316 3187.458008 776.489746 3210.521484 786.619629 3231.322266 C 796.749512 3252.123047 810.678223 3269.941406 828.402832 3284.774414 C 846.130859 3299.608398 866.931641 3311.092773 890.808594 3319.233398 C 914.685547 3327.371094 940.552246 3331.442383 968.408691 3331.442383 L 968.408691 3331.442383 Z M 967.322266 3245.704102 C 949.956055 3245.704102 933.948242 3243.803711 919.295898 3240.005859 C 904.645508 3236.207031 891.893555 3230.689453 881.041504 3223.455078 C 870.187012 3216.217773 861.776367 3207.537109 855.807129 3197.407227 C 849.837891 3187.279297 846.855469 3175.881836 846.855469 3163.220703 C 846.855469 3150.556641 849.927246 3139.073242 856.07959 3128.762695 C 862.228027 3118.452148 870.728516 3109.678711 881.583984 3102.444336 C 892.436523 3095.208008 905.27832 3089.602539 920.111816 3085.621094 C 934.945313 3081.641602 951.04248 3079.651367 968.408691 3079.651367 C 985.771484 3079.651367 1001.872559 3081.549805 1016.703613 3085.350586 C 1031.535645 3089.148438 1044.288086 3094.666016 1054.960938 3101.901367 C 1065.631836 3109.137695 1073.953125 3117.819336 1079.922363 3127.949219 C 1085.891602 3138.077148 1088.875488 3149.473633 1088.875488 3162.134766 C 1088.875488 3174.795898 1085.800293 3186.282227 1079.651367 3196.592773 C 1073.499023 3206.904297 1064.999512 3215.676758 1054.146973 3222.913086 C 1043.294922 3230.145508 1030.449219 3235.754883 1015.617676 3239.734375 C 1000.785645 3243.713867 984.689453 3245.704102 967.322266 3245.704102 L 967.322266 3245.704102 Z"/>
        <path id="path44" fill="#000000" stroke="none" d="M 968.408691 3727.579102 C 995.901367 3727.579102 1021.586914 3723.599609 1045.463867 3715.640625 C 1069.34082 3707.680664 1090.141113 3696.375977 1107.870117 3681.724609 C 1125.594238 3667.072266 1139.433594 3649.345703 1149.382324 3628.542969 C 1159.331055 3607.742188 1164.305664 3584.680664 1164.305664 3559.357422 C 1164.305664 3534.032227 1159.241211 3510.96875 1149.109375 3490.167969 C 1138.981934 3469.367188 1125.053711 3451.549805 1107.324707 3436.717773 C 1089.600586 3421.883789 1068.706055 3410.399414 1044.649902 3402.258789 C 1020.592285 3394.119141 994.816895 3390.049805 967.322266 3390.049805 C 939.46582 3390.049805 913.690918 3394.027344 889.993164 3401.988281 C 866.296875 3409.945313 845.585938 3421.250977 827.861328 3435.904297 C 810.132324 3450.554688 796.297852 3468.28125 786.347168 3489.082031 C 776.398438 3509.884766 771.424316 3532.947266 771.424316 3558.270508 C 771.424316 3583.594727 776.489746 3606.655273 786.619629 3627.458984 C 796.749512 3648.261719 810.678223 3666.077148 828.402832 3680.911133 C 846.130859 3695.743164 866.931641 3707.229492 890.808594 3715.368164 C 914.685547 3723.509766 940.552246 3727.579102 968.408691 3727.579102 L 968.408691 3727.579102 Z M 967.322266 3641.84082 C 949.956055 3641.84082 933.948242 3639.94043 919.295898 3636.139648 C 904.645508 3632.34375 891.893555 3626.826172 881.041504 3619.59082 C 870.187012 3612.354492 861.776367 3603.672852 855.807129 3593.542969 C 849.837891 3583.414063 846.855469 3572.016602 846.855469 3559.357422 C 846.855469 3546.695313 849.927246 3535.208008 856.07959 3524.897461 C 862.228027 3514.588867 870.728516 3505.813477 881.583984 3498.579102 C 892.436523 3491.34375 905.27832 3485.736328 920.111816 3481.757813 C 934.945313 3477.77832 951.04248 3475.788086 968.408691 3475.788086 C 985.771484 3475.788086 1001.872559 3477.686523 1016.703613 3481.485352 C 1031.535645 3485.285156 1044.288086 3490.802734 1054.960938 3498.038086 C 1065.631836 3505.272461 1073.953125 3513.956055 1079.922363 3524.083984 C 1085.891602 3534.212891 1088.875488 3545.608398 1088.875488 3558.270508 C 1088.875488 3570.931641 1085.800293 3582.418945 1079.651367 3592.729492 C 1073.499023 3603.040039 1064.999512 3611.811523 1054.146973 3619.047852 C 1043.294922 3626.285156 1030.449219 3631.889648 1015.617676 3635.871094 C 1000.785645 3639.850586 984.689453 3641.84082 967.322266 3641.84082 L 967.322266 3641.84082 Z"/>
    </g>
</svg>
