<?xml version="1.0" encoding="UTF-8"?>
<!-- Generated by Pixelmator Pro 3.7 -->
<svg width="2441" height="4366" viewBox="0 0 2441 4366" xmlns="http://www.w3.org/2000/svg">
    <g id="Gruppo">
        <path id="Percorso" fill="#000000" fill-rule="evenodd" stroke="none" d="M 223.918457 684.616211 L 0.533691 682.239746 L 0.533691 4137.13916 L 223.918457 4137.13916 L 223.918457 4113.245605 C 223.918457 4094.145508 239.543457 4078.520508 258.643066 4078.520508 L 62.069336 4078.520508 L 62.069336 740.866211 L 251.697266 743.535645 L 251.697266 740.166504 C 235.895508 736.919434 223.918457 722.864746 223.918457 706.141113 L 223.918457 684.616211 L 223.918457 684.616211 Z"/>
        <path id="path1" fill="#000000" fill-rule="evenodd" stroke="none" d="M 2405.691406 454.13916 L 258.643066 454.13916 C 239.543457 454.13916 223.916504 469.76416 223.916504 488.864258 L 223.916504 706.141113 C 223.916504 725.241211 239.543457 740.866211 258.643066 740.866211 L 2405.691406 740.866211 C 2424.792969 740.866211 2440.417969 725.241211 2440.417969 706.141113 L 2440.417969 488.864258 C 2440.417969 469.76416 2424.792969 454.13916 2405.691406 454.13916 L 2405.691406 454.13916 Z"/>
        <path id="path2" fill="#000000" fill-rule="evenodd" stroke="none" d="M 1684.80957 1.706055 L 979.523438 1.706055 C 926.827148 1.706055 883.708496 44.829102 883.708496 97.523438 L 883.708496 474.793457 L 1780.625977 474.793457 L 1780.625977 97.523438 C 1780.625977 44.829102 1737.508789 1.706055 1684.80957 1.706055 L 1684.80957 1.706055 Z"/>
        <path id="path3" fill="#f8f9f4" fill-rule="evenodd" stroke="none" d="M 263.098633 740.866211 L 62.069336 740.866211 L 62.069336 4078.520508 L 263.098633 4078.520508 L 2401.233398 4078.520508 L 2401.233398 740.866211 L 263.098633 740.866211 L 263.098633 740.866211 Z"/>
        <path id="path4" fill="#000000" fill-rule="evenodd" stroke="none" d="M 2405.691406 4078.520508 L 258.643066 4078.520508 C 239.543457 4078.520508 223.916504 4094.145508 223.916504 4113.245605 L 223.916504 4330.522461 C 223.916504 4349.623047 239.543457 4365.248047 258.643066 4365.248047 L 2405.691406 4365.248047 C 2424.792969 4365.248047 2440.417969 4349.623047 2440.417969 4330.522461 L 2440.417969 4113.245605 C 2440.417969 4094.145508 2424.792969 4078.520508 2405.691406 4078.520508 L 2405.691406 4078.520508 Z"/>
        <path id="path5" fill="#7bb6be" stroke="none" d="M 300.155273 2401.12793 L 300.155273 2418.250488 L 285.327637 2409.689453 L 300.155273 2401.12793 L 300.155273 2401.12793 Z M 1722.28418 3239.319824 L 1722.28418 1580.066895 L 1750.816406 1563.587891 L 1750.816406 2409.689453 L 1750.816406 3255.791504 L 1722.28418 3239.319824 L 1722.28418 3239.319824 Z M 1618.657227 3179.489258 L 1618.657227 1639.889648 L 1647.311523 1623.345215 L 1647.311523 3196.03418 L 1618.657227 3179.489258 L 1618.657227 3179.489258 Z M 1515.029297 3119.666504 L 1515.029297 1699.720215 L 1543.685547 1683.175781 L 1543.685547 3136.203125 L 1515.029297 3119.666504 L 1515.029297 3119.666504 Z M 1411.402344 3059.835938 L 1411.402344 1759.55127 L 1440.057617 1743.006348 L 1440.057617 3076.380859 L 1411.402344 3059.835938 L 1411.402344 3059.835938 Z M 1307.776367 3000.005371 L 1307.776367 1819.381836 L 1336.430664 1802.837402 L 1336.430664 3016.549805 L 1307.776367 3000.005371 L 1307.776367 3000.005371 Z M 1204.146973 2940.174316 L 1204.146973 1879.212891 L 1232.803223 1862.667969 L 1232.803223 2956.71875 L 1204.146973 2940.174316 L 1204.146973 2940.174316 Z M 1100.521973 2880.34375 L 1100.521973 1939.035156 L 1129.175293 1922.498535 L 1129.175293 2896.888184 L 1100.521973 2880.34375 L 1100.521973 2880.34375 Z M 996.89209 2820.513184 L 996.89209 1998.874023 L 1018.069336 1986.642578 L 1025.547852 1982.321289 L 1025.547852 2837.057617 L 1018.069336 2832.744141 L 996.89209 2820.513184 L 996.89209 2820.513184 Z M 893.266113 2760.689941 L 893.266113 2058.696289 L 921.92041 2042.151855 L 921.92041 2777.227051 L 893.266113 2760.689941 L 893.266113 2760.689941 Z M 789.638672 2700.851563 L 789.638672 2118.527344 L 818.294922 2101.98291 L 818.294922 2717.404297 L 789.638672 2700.851563 L 789.638672 2700.851563 Z M 686.01123 2641.028809 L 686.01123 2178.35791 L 714.665527 2161.813477 L 714.665527 2657.57373 L 686.01123 2641.028809 L 686.01123 2641.028809 Z M 582.383789 2581.198242 L 582.383789 2238.188965 L 611.038086 2221.644531 L 611.038086 2597.742676 L 582.383789 2581.198242 L 582.383789 2581.198242 Z M 478.756348 2521.367188 L 478.756348 2298.01123 L 507.410156 2281.474609 L 507.410156 2537.912109 L 478.756348 2521.367188 L 478.756348 2521.367188 Z M 375.128906 2461.537109 L 375.128906 2357.842285 L 403.784668 2341.297852 L 403.784668 2478.081543 L 375.128906 2461.537109 L 375.128906 2461.537109 Z"/>
        <path id="path6" fill="#53757f" fill-rule="evenodd" stroke="none" d="M 1874.426758 1389.743164 L 2168.108398 1389.743164 L 2168.108398 3429.635742 L 1874.426758 3429.635742 L 1874.426758 1389.743164 L 1874.426758 1389.743164 Z"/>
        <path id="path7" fill="#000000" stroke="none" d="M 1410.619141 2819.690918 L 1467.455078 2805.254395 L 1453.918945 2750.224609 L 1701.561523 2750.224609 L 1701.561523 2681.662109 L 1383.553711 2681.662109 L 1383.553711 2729.025391 L 1410.619141 2819.690918 L 1410.619141 2819.690918 Z"/>
        <path id="path8" fill="#000000" stroke="none" d="M 1543.233398 2335.234863 C 1520.37793 2335.234863 1499.02832 2338.546875 1479.179688 2345.154785 C 1459.333008 2351.770996 1442.041992 2361.170898 1427.307617 2373.353027 C 1412.573242 2385.527832 1401.071289 2400.265625 1392.799805 2417.559082 C 1384.530273 2434.84375 1380.396484 2454.017578 1380.396484 2475.070313 C 1380.396484 2496.115234 1384.607422 2515.288574 1393.026367 2532.582031 C 1401.445313 2549.866699 1413.023438 2564.678223 1427.759766 2577.015137 C 1442.493164 2589.335938 1459.860352 2598.890137 1479.859375 2605.65332 C 1499.854492 2612.423828 1521.28125 2615.80127 1544.136719 2615.80127 C 1567.291992 2615.80127 1588.717773 2612.49707 1608.415039 2605.880859 C 1628.109375 2599.264648 1645.327148 2589.865234 1660.061523 2577.682617 C 1674.796875 2565.508301 1686.300781 2550.77002 1694.568359 2533.485352 C 1702.838867 2516.191895 1706.974609 2497.018555 1706.974609 2475.973633 C 1706.974609 2454.920898 1702.763672 2435.74707 1694.342773 2418.454102 C 1685.921875 2401.168945 1674.345703 2386.35791 1659.611328 2374.02832 C 1644.875977 2361.699219 1627.584961 2352.145508 1607.738281 2345.382813 C 1587.891602 2338.620117 1566.388672 2335.234863 1543.233398 2335.234863 L 1543.233398 2335.234863 Z M 1544.136719 2406.507324 C 1558.570313 2406.507324 1571.876953 2408.085938 1584.056641 2411.244141 C 1596.234375 2414.401367 1606.834961 2418.983398 1615.857422 2424.99707 C 1624.878906 2431.01123 1631.869141 2438.229492 1636.833008 2446.652344 C 1641.792969 2455.066895 1644.275391 2464.540039 1644.275391 2475.070313 C 1644.275391 2485.592773 1641.71875 2495.138672 1636.605469 2503.708008 C 1631.495117 2512.285645 1624.426758 2519.577148 1615.40625 2525.59082 C 1606.384766 2531.605469 1595.708008 2536.260254 1583.380859 2539.572266 C 1571.049805 2542.876465 1557.666992 2544.536621 1543.233398 2544.536621 C 1528.798828 2544.536621 1515.417969 2542.95752 1503.088867 2539.800293 C 1490.759766 2536.642578 1480.158203 2532.052734 1471.287109 2526.038574 C 1462.415039 2520.024902 1455.498047 2512.806641 1450.538086 2504.391602 C 1445.575195 2495.96875 1443.095703 2486.496094 1443.095703 2475.973633 C 1443.095703 2465.443359 1445.651367 2455.897461 1450.761719 2447.327637 C 1455.875977 2438.758789 1462.942383 2431.466797 1471.964844 2425.452637 C 1480.986328 2419.438965 1491.661133 2414.775391 1503.988281 2411.463379 C 1516.319336 2408.15918 1529.700195 2406.507324 1544.136719 2406.507324 L 1544.136719 2406.507324 Z"/>
        <path id="path9" fill="#000000" stroke="none" d="M 1543.233398 2005.954102 C 1520.37793 2005.954102 1499.02832 2009.258301 1479.179688 2015.874512 C 1459.333008 2022.490723 1442.041992 2031.889648 1427.307617 2044.064453 C 1412.573242 2056.24707 1401.071289 2070.985352 1392.799805 2088.27002 C 1384.530273 2105.563477 1380.396484 2124.728516 1380.396484 2145.78125 C 1380.396484 2166.834961 1384.607422 2186.007813 1393.026367 2203.292969 C 1401.445313 2220.585938 1413.023438 2235.397461 1427.759766 2247.726563 C 1442.493164 2260.055664 1459.860352 2269.601563 1479.859375 2276.37207 C 1499.854492 2283.135254 1521.28125 2286.520508 1544.136719 2286.520508 C 1567.291992 2286.520508 1588.717773 2283.208008 1608.415039 2276.592285 C 1628.109375 2269.976074 1645.327148 2260.584961 1660.061523 2248.401855 C 1674.796875 2236.227539 1686.300781 2221.489258 1694.568359 2204.196289 C 1702.838867 2186.90332 1706.974609 2167.738281 1706.974609 2146.68457 C 1706.974609 2125.631836 1702.763672 2106.466797 1694.342773 2089.17334 C 1685.921875 2071.880371 1674.345703 2057.068848 1659.611328 2044.739746 C 1644.875977 2032.410645 1627.584961 2022.864746 1607.738281 2016.102539 C 1587.891602 2009.331543 1566.388672 2005.954102 1543.233398 2005.954102 L 1543.233398 2005.954102 Z M 1544.136719 2077.21875 C 1558.570313 2077.21875 1571.876953 2078.797852 1584.056641 2081.955078 C 1596.234375 2085.112793 1606.834961 2089.702148 1615.857422 2095.716309 C 1624.878906 2101.730469 1631.869141 2108.94873 1636.833008 2117.363281 C 1641.792969 2125.786621 1644.275391 2135.258789 1644.275391 2145.78125 C 1644.275391 2156.3125 1641.71875 2165.85791 1636.605469 2174.427246 C 1631.495117 2182.99707 1624.426758 2190.288574 1615.40625 2196.302246 C 1606.384766 2202.316406 1595.708008 2206.979492 1583.380859 2210.283691 C 1571.049805 2213.595703 1557.666992 2215.247559 1543.233398 2215.247559 C 1528.798828 2215.247559 1515.417969 2213.668945 1503.088867 2210.51123 C 1490.759766 2207.354004 1480.158203 2202.772461 1471.287109 2196.758301 C 1462.415039 2190.744141 1455.498047 2183.525391 1450.538086 2175.102539 C 1445.575195 2166.679688 1443.095703 2157.207031 1443.095703 2146.68457 C 1443.095703 2136.162109 1445.651367 2126.616211 1450.761719 2118.039063 C 1455.875977 2109.469727 1462.942383 2102.178223 1471.964844 2096.164063 C 1480.986328 2090.150391 1491.661133 2085.486816 1503.988281 2082.183105 C 1516.319336 2078.870605 1529.700195 2077.21875 1544.136719 2077.21875 L 1544.136719 2077.21875 Z"/>
    </g>
</svg>
