<?xml version="1.0" encoding="UTF-8"?>
<!-- Generated by Pixelmator Pro 3.7 -->
<svg width="2442" height="4366" viewBox="0 0 2442 4366" xmlns="http://www.w3.org/2000/svg">
    <g id="Gruppo">
        <path id="Percorso" fill="#000000" fill-rule="evenodd" stroke="none" d="M 224.302734 684.616211 L 0.921875 682.239746 L 0.921875 4137.13916 L 224.302734 4137.13916 L 224.302734 4113.245605 C 224.302734 4094.145508 239.927734 4078.520508 259.027344 4078.520508 L 62.453125 4078.520508 L 62.453125 740.866211 L 252.085938 743.535645 L 252.085938 740.166504 C 236.28125 736.919434 224.302734 722.864746 224.302734 706.141113 L 224.302734 684.616211 L 224.302734 684.616211 Z"/>
        <path id="path1" fill="#000000" fill-rule="evenodd" stroke="none" d="M 2406.074219 454.13916 L 259.027344 454.13916 C 239.927734 454.13916 224.302734 469.76416 224.302734 488.864258 L 224.302734 706.141113 C 224.302734 725.241211 239.927734 740.866211 259.027344 740.866211 L 2406.074219 740.866211 C 2425.181641 740.866211 2440.806641 725.241211 2440.806641 706.141113 L 2440.806641 488.864258 C 2440.806641 469.76416 2425.181641 454.13916 2406.074219 454.13916 L 2406.074219 454.13916 Z"/>
        <path id="path2" fill="#000000" fill-rule="evenodd" stroke="none" d="M 1684.191406 1.706055 L 980.919922 1.706055 C 927.664063 1.706055 884.09375 45.277344 884.09375 98.532227 L 884.09375 479.75 L 1781.017578 479.75 L 1781.017578 98.532227 C 1781.017578 45.277344 1737.445313 1.706055 1684.191406 1.706055 L 1684.191406 1.706055 Z"/>
        <path id="path3" fill="#f8f9f4" fill-rule="evenodd" stroke="none" d="M 263.488281 740.866211 L 62.453125 740.866211 L 62.453125 4078.520508 L 263.488281 4078.520508 L 2401.623047 4078.520508 L 2401.623047 740.866211 L 263.488281 740.866211 L 263.488281 740.866211 Z"/>
        <path id="path4" fill="#000000" fill-rule="evenodd" stroke="none" d="M 2406.074219 4078.520508 L 259.027344 4078.520508 C 239.927734 4078.520508 224.302734 4094.145508 224.302734 4113.245605 L 224.302734 4330.522461 C 224.302734 4349.623047 239.927734 4365.248047 259.027344 4365.248047 L 2406.074219 4365.248047 C 2425.181641 4365.248047 2440.806641 4349.623047 2440.806641 4330.522461 L 2440.806641 4113.245605 C 2440.806641 4094.145508 2425.181641 4078.520508 2406.074219 4078.520508 L 2406.074219 4078.520508 Z"/>
        <path id="path5" fill="#0182bc" fill-rule="evenodd" stroke="none" d="M 62.453125 740.866211 L 573 740.866211 L 573 4078.520508 L 62.453125 4078.520508 L 62.453125 740.866211 L 62.453125 740.866211 Z"/>
        <path id="path6" fill="#201a1a" fill-rule="evenodd" stroke="#000000" stroke-width="2.362208" d="M 1823.919922 1972.067383 L 2050.792969 2107.476074 L 2050.792969 2904.75 L 1823.919922 2769.333008 L 1823.919922 1972.067383 L 1823.919922 1972.067383 Z"/>
        <path id="path7" fill="#201a1a" fill-rule="evenodd" stroke="none" d="M 825.898438 1543.356445 L 890.164063 1543.356445 C 930.373047 1543.356445 963.275391 1576.258301 963.275391 1616.46875 L 963.275391 3202.918457 C 963.275391 3243.128418 930.373047 3276.030762 890.164063 3276.030762 L 825.898438 3276.030762 C 785.6875 3276.030762 752.785156 3243.128418 752.785156 3202.918457 L 752.785156 1616.46875 C 752.785156 1576.258301 785.6875 1543.356445 825.898438 1543.356445 L 825.898438 1543.356445 Z"/>
        <path id="path8" fill="#000000" stroke="none" d="M 2140.75 2672.514648 L 2175.90625 2663.587891 L 2167.53125 2629.545898 L 2320.722656 2629.545898 L 2320.722656 2587.130859 L 2124.001953 2587.130859 L 2124.001953 2616.427734 L 2140.75 2672.514648 L 2140.75 2672.514648 Z"/>
        <path id="path9" fill="#000000" stroke="none" d="M 2161.396484 2475.233398 C 2161.396484 2467.420898 2163.537109 2461.097168 2167.808594 2456.263184 C 2172.089844 2451.429199 2178.371094 2449.004395 2186.738281 2449.004395 C 2190.832031 2449.004395 2194.599609 2449.614258 2198.041016 2450.818848 C 2201.435547 2452.03125 2204.974609 2453.984863 2208.595703 2456.678711 C 2212.226563 2459.380371 2216.042969 2462.863281 2220.039063 2467.144043 C 2224.035156 2471.424316 2228.501953 2476.632813 2233.523438 2482.769043 L 2286.730469 2547.783691 L 2320.722656 2547.783691 L 2320.722656 2403.244141 L 2283.613281 2403.244141 L 2283.613281 2488.351563 L 2259.060547 2456.540039 C 2252.363281 2447.986816 2246.177734 2440.451172 2240.498047 2433.94043 C 2234.826172 2427.430176 2229.103516 2422.083496 2223.341797 2417.892578 C 2217.572266 2413.709961 2211.486328 2410.543945 2205.064453 2408.412109 C 2198.644531 2406.271484 2191.34375 2405.197266 2183.15625 2405.197266 C 2174.042969 2405.197266 2165.765625 2406.735352 2158.328125 2409.803711 C 2150.880859 2412.871582 2144.509766 2417.339355 2139.210938 2423.19873 C 2133.914063 2429.058105 2129.820313 2436.12207 2126.931641 2444.40625 C 2124.050781 2452.682617 2122.609375 2462.025391 2122.609375 2472.449707 C 2122.609375 2481.19043 2123.488281 2489.00293 2125.263672 2495.887207 C 2127.078125 2502.772461 2129.681641 2509.046387 2133.166016 2514.71875 C 2136.607422 2520.391113 2140.888672 2525.696777 2145.958984 2530.628418 C 2150.978516 2535.551758 2156.789063 2540.43457 2163.349609 2545.276855 L 2187.625 2515.14209 C 2178.697266 2507.882813 2172.089844 2501.32373 2167.808594 2495.464355 C 2163.537109 2489.60498 2161.396484 2482.866699 2161.396484 2475.233398 L 2161.396484 2475.233398 Z"/>
        <path id="path10" fill="#000000" stroke="none" d="M 2221.666016 2362.505371 L 2238.128906 2337.667969 C 2236.085938 2333.020996 2234.361328 2327.951172 2232.970703 2322.46582 C 2231.570313 2316.973145 2230.878906 2311.162109 2230.878906 2305.026367 C 2230.878906 2294.422852 2233.197266 2286.007813 2237.892578 2279.773926 C 2242.548828 2273.540039 2249.197266 2270.42334 2257.798828 2270.42334 C 2266.775391 2270.42334 2273.611328 2273.353027 2278.265625 2279.212891 C 2282.960938 2285.071777 2285.289063 2293.022461 2285.289063 2303.073242 C 2285.289063 2311.813477 2283.425781 2319.902832 2279.707031 2327.349121 C 2275.988281 2334.787109 2270.779297 2342.233398 2264.082031 2349.671387 L 2294.957031 2375.623535 C 2304.03125 2366.134766 2311.144531 2355.53125 2316.302734 2343.8125 C 2321.470703 2332.09375 2324.074219 2318.324219 2324.074219 2302.511719 C 2324.074219 2291.354492 2322.488281 2281.165527 2319.330078 2271.912598 C 2316.164063 2262.708496 2311.65625 2254.847168 2305.796875 2248.37793 C 2299.9375 2241.916016 2292.816406 2236.894531 2284.451172 2233.363281 C 2276.076172 2229.773926 2266.685547 2228.008301 2256.269531 2228.008301 C 2245.103516 2228.008301 2235.574219 2229.773926 2227.664063 2233.363281 C 2219.761719 2236.894531 2213.292969 2241.777832 2208.271484 2247.962891 C 2203.25 2254.147461 2199.53125 2261.35791 2197.113281 2269.683105 C 2194.697266 2278.008301 2193.484375 2286.984375 2193.484375 2296.652344 C 2193.484375 2302.047852 2193.810547 2306.702637 2194.460938 2310.608887 C 2195.111328 2314.515137 2195.900391 2318.421387 2196.828125 2322.327637 L 2163.072266 2320.089844 L 2163.072266 2236.70752 L 2125.402344 2236.70752 L 2125.402344 2356.922852 L 2221.666016 2362.505371 L 2221.666016 2362.505371 Z"/>
        <path id="path11" fill="#0182bc" stroke="none" d="M 1234.109375 2775.338867 L 1108.140625 2775.338867 L 1108.140625 3258.363281 L 1742.5 3258.363281 L 1742.5 3118.804199 L 1496.910156 3118.804199 L 1496.910156 2816.118652 L 1370.949219 2816.118652 L 1370.949219 3118.804199 L 1234.109375 3118.804199 L 1234.109375 2775.338867 L 1234.109375 2775.338867 Z"/>
        <path id="path12" fill="#0182bc" stroke="none" d="M 1329.259766 2161.821289 L 1327.443359 2161.821289 C 1294.826172 2161.821289 1265.066406 2167.412109 1238.185547 2178.585938 C 1211.298828 2189.767578 1188.185547 2205.775391 1168.859375 2226.616211 C 1149.523438 2247.458008 1134.572266 2272.84082 1124.001953 2302.739258 C 1113.429688 2332.646973 1108.140625 2366.630859 1108.140625 2404.692871 L 1108.140625 2663.87207 L 1742.5 2663.87207 L 1742.5 2524.313477 L 1552.191406 2524.313477 L 1552.191406 2418.283203 C 1552.191406 2382.638672 1547.511719 2349.264648 1538.146484 2318.14502 C 1528.779297 2287.033203 1514.732422 2259.84375 1496.007813 2236.585449 C 1477.273438 2213.327148 1454.015625 2195.048828 1426.222656 2181.759766 C 1398.431641 2168.470215 1366.115234 2161.821289 1329.259766 2161.821289 L 1329.259766 2161.821289 Z M 1331.976563 2303.195313 C 1359.166016 2303.195313 1381.96875 2312.863281 1400.392578 2332.190918 C 1418.826172 2351.526855 1428.039063 2378.71582 1428.039063 2413.758789 L 1428.039063 2524.313477 L 1234.109375 2524.313477 L 1234.109375 2416.476563 C 1234.109375 2381.43457 1242.263672 2353.797852 1258.572266 2333.558105 C 1274.888672 2313.311035 1298.75 2303.195313 1330.169922 2303.195313 L 1331.976563 2303.195313 L 1331.976563 2303.195313 Z"/>
        <path id="path13" fill="#0182bc" stroke="none" d="M 1103.607422 1758.550293 L 1506.878906 2106.54834 L 1605.658203 2083.89209 L 1605.658203 1773.955078 L 1742.5 1773.955078 L 1742.5 1640.744141 L 1605.658203 1640.744141 L 1605.658203 1555.555176 L 1492.384766 1555.555176 L 1492.384766 1640.744141 L 1103.607422 1640.744141 L 1103.607422 1758.550293 L 1103.607422 1758.550293 Z M 1492.384766 1773.955078 L 1492.384766 1942.518066 L 1294.826172 1773.955078 L 1492.384766 1773.955078 L 1492.384766 1773.955078 Z"/>
    </g>
</svg>
