<?xml version="1.0" encoding="UTF-8"?>
<!-- Generated by Pixelmator Pro 3.7 -->
<svg width="2441" height="4366" viewBox="0 0 2441 4366" xmlns="http://www.w3.org/2000/svg">
    <g id="Gruppo">
        <path id="Percorso" fill="#000000" fill-rule="evenodd" stroke="none" d="M 223.607422 684.616211 L 0.227539 682.239746 L 0.227539 4137.13916 L 223.607422 4137.13916 L 223.607422 4113.245605 C 223.607422 4094.145508 239.232422 4078.520508 258.332031 4078.520508 L 61.766602 4078.520508 L 61.766602 740.866211 L 251.390625 743.535645 L 251.390625 740.158203 C 235.586914 736.919434 223.607422 722.856934 223.607422 706.141113 L 223.607422 684.616211 L 223.607422 684.616211 Z"/>
        <path id="path1" fill="#000000" fill-rule="evenodd" stroke="none" d="M 2405.386719 454.130859 L 258.332031 454.130859 C 239.241211 454.130859 223.607422 469.755859 223.607422 488.864258 L 223.607422 706.141113 C 223.607422 725.241211 239.241211 740.866211 258.332031 740.866211 L 2405.386719 740.866211 C 2424.486328 740.866211 2440.111328 725.241211 2440.111328 706.141113 L 2440.111328 488.864258 C 2440.111328 469.755859 2424.486328 454.130859 2405.386719 454.130859 L 2405.386719 454.130859 Z"/>
        <path id="path2" fill="#000000" fill-rule="evenodd" stroke="none" d="M 1684.503906 1.706055 L 979.214844 1.706055 C 926.520508 1.706055 883.397461 44.829102 883.397461 97.523438 L 883.397461 474.785645 L 1780.321289 474.785645 L 1780.321289 97.523438 C 1780.321289 44.829102 1737.198242 1.706055 1684.503906 1.706055 L 1684.503906 1.706055 Z"/>
        <path id="path3" fill="#ffbc01" fill-rule="evenodd" stroke="none" d="M 262.791992 740.866211 L 61.766602 740.866211 L 61.766602 4078.520508 L 262.791992 4078.520508 L 2400.926758 4078.520508 L 2400.926758 740.866211 L 262.791992 740.866211 L 262.791992 740.866211 Z"/>
        <path id="path4" fill="#000000" fill-rule="evenodd" stroke="none" d="M 2405.386719 4078.520508 L 258.332031 4078.520508 C 239.241211 4078.520508 223.607422 4094.145508 223.607422 4113.245605 L 223.607422 4330.522461 C 223.607422 4349.623047 239.241211 4365.248047 258.332031 4365.248047 L 2405.386719 4365.248047 C 2424.486328 4365.248047 2440.111328 4349.623047 2440.111328 4330.522461 L 2440.111328 4113.245605 C 2440.111328 4094.145508 2424.486328 4078.520508 2405.386719 4078.520508 L 2405.386719 4078.520508 Z"/>
        <path id="path5" fill="#0f0b08" fill-rule="evenodd" stroke="none" d="M 56.900391 716.883301 L 2400.926758 716.883301 L 2400.926758 1185.51123 L 56.900391 1185.51123 L 56.900391 716.883301 L 56.900391 716.883301 Z"/>
        <path id="path6" fill="#a15c00" stroke="none" d="M 1450.511719 1185.51123 L 1442.577148 3336.537109 L 1420.165039 3336.537109 L 1428.107422 1185.51123 L 1450.511719 1185.51123 L 1450.511719 1185.51123 Z"/>
        <path id="path7" fill="#857ce5" fill-rule="evenodd" stroke="none" d="M 2090.160156 4078.520508 L 907.494141 4078.520508 L 907.494141 3463.530762 L 2090.160156 2963.481934 L 2090.160156 4078.520508 L 2090.160156 4078.520508 Z"/>
        <path id="path8" fill="#ffffff" stroke="none" d="M 1166.462891 3672.612793 L 1176.382813 3711.642578 L 1214.174805 3702.349121 L 1214.174805 3872.41748 L 1261.253906 3872.41748 L 1261.253906 3654.024902 L 1228.734375 3654.024902 L 1166.462891 3672.612793 L 1166.462891 3672.612793 Z"/>
        <path id="path9" fill="#ffffff" stroke="none" d="M 1469.432617 3675.550781 C 1464.679688 3671.831543 1459.830078 3668.527344 1454.874023 3665.532715 C 1449.917969 3662.537598 1444.75 3660.063965 1439.386719 3657.99707 C 1434.016602 3655.929688 1428.229492 3654.432129 1422.037109 3653.406738 C 1415.835938 3652.373535 1409.024414 3651.852539 1401.585938 3651.852539 C 1385.480469 3651.852539 1371.43457 3654.904297 1359.463867 3660.991699 C 1347.484375 3667.086914 1337.564453 3675.452637 1329.71875 3686.081055 C 1321.874023 3696.717285 1316.039063 3709.266602 1312.222656 3723.719238 C 1308.397461 3738.180664 1306.485352 3753.772949 1306.485352 3770.49707 C 1306.485352 3792.184082 1308.8125 3809.380371 1313.459961 3822.075684 C 1318.106445 3834.778809 1324.347656 3845.057129 1332.201172 3852.902344 C 1339.833984 3860.543945 1348.616211 3866.330078 1358.52832 3870.25293 C 1368.44043 3874.175293 1380.525391 3876.13623 1394.774414 3876.13623 C 1406.550781 3876.13623 1417.496094 3874.32959 1427.611328 3870.716309 C 1437.735352 3867.103027 1446.458984 3861.935547 1453.791016 3855.22998 C 1461.124023 3848.516113 1466.901367 3840.56543 1471.133789 3831.377441 C 1475.365234 3822.181641 1477.489258 3812.008789 1477.489258 3800.859863 C 1477.489258 3789.499023 1475.527344 3779.480957 1471.597656 3770.806152 C 1467.674805 3762.13916 1462.303711 3754.904297 1455.492188 3749.126465 C 1448.672852 3743.340332 1440.624023 3738.954102 1431.330078 3735.958984 C 1422.037109 3732.964355 1412.019531 3731.466797 1401.276367 3731.466797 C 1390.542969 3731.466797 1381.712891 3732.915039 1374.795898 3735.804199 C 1367.87793 3738.693359 1361.734375 3741.899902 1356.362305 3745.407227 C 1357.18457 3738.335449 1358.633789 3731.67041 1360.700195 3725.477051 C 1362.759766 3719.235352 1365.599609 3713.864258 1369.22168 3709.420898 C 1372.834961 3704.928223 1377.171875 3701.420898 1382.225586 3698.784668 C 1387.287109 3696.20459 1393.228516 3694.910645 1400.040039 3694.910645 C 1404.581055 3694.910645 1408.820313 3695.325684 1412.743164 3696.15625 C 1416.666016 3696.977539 1420.384766 3698.117188 1423.892578 3699.557617 C 1427.408203 3701.006348 1430.80957 3702.812988 1434.113281 3704.977539 C 1437.417969 3707.149902 1440.827148 3709.575684 1444.34375 3712.26123 L 1469.432617 3675.550781 L 1469.432617 3675.550781 Z M 1430.394531 3803.024414 C 1430.394531 3812.529785 1427.147461 3820.269043 1420.587891 3826.258301 C 1414.085938 3832.248047 1404.898438 3835.242676 1393.073242 3835.242676 C 1381.249023 3835.242676 1371.955078 3832.199219 1365.241211 3826.104004 C 1358.478516 3820.016602 1355.125977 3812.220215 1355.125977 3802.715332 C 1355.125977 3793.421387 1358.373047 3785.836914 1364.932617 3779.953125 C 1371.43457 3774.061035 1380.630859 3771.123535 1392.447266 3771.123535 C 1404.271484 3771.123535 1413.564453 3774.118164 1420.279297 3780.10791 C 1427.041992 3786.089355 1430.394531 3793.730469 1430.394531 3803.024414 L 1430.394531 3803.024414 Z"/>
        <path id="path10" fill="#ffffff" stroke="none" d="M 1704.24707 3763.685059 C 1704.24707 3747.986816 1701.976563 3733.330078 1697.435547 3719.699219 C 1692.886719 3706.067871 1686.432617 3694.194824 1678.067383 3684.070801 C 1669.709961 3673.955078 1659.585938 3666.053711 1647.712891 3660.373047 C 1635.838867 3654.692871 1622.671875 3651.852539 1608.217773 3651.852539 C 1593.756836 3651.852539 1580.589844 3654.741699 1568.716797 3660.527832 C 1556.84375 3666.313965 1546.670898 3674.264648 1538.207031 3684.380371 C 1529.735352 3694.503906 1523.175781 3706.42627 1518.529297 3720.163086 C 1513.882813 3733.89209 1511.563477 3748.605469 1511.563477 3764.303223 C 1511.563477 3780.205078 1513.833984 3794.918945 1518.374023 3808.452148 C 1522.923828 3821.977539 1529.37793 3833.802246 1537.735352 3843.917969 C 1546.100586 3854.041504 1556.224609 3861.935547 1568.097656 3867.616211 C 1579.970703 3873.295898 1593.138672 3876.13623 1607.591797 3876.13623 C 1622.053711 3876.13623 1635.220703 3873.247559 1647.09375 3867.460938 C 1658.966797 3861.683105 1669.139648 3853.732422 1677.603516 3843.608398 C 1686.075195 3833.493164 1692.633789 3821.611328 1697.280273 3807.980469 C 1701.919922 3794.357422 1704.24707 3779.586914 1704.24707 3763.685059 L 1704.24707 3763.685059 Z M 1655.304688 3764.303223 C 1655.304688 3774.215332 1654.214844 3783.35498 1652.049805 3791.720703 C 1649.876953 3800.086426 1646.727539 3807.361816 1642.601563 3813.562988 C 1638.467773 3819.756348 1633.511719 3824.557617 1627.733398 3827.967285 C 1621.947266 3831.377441 1615.445313 3833.078125 1608.217773 3833.078125 C 1600.983398 3833.078125 1594.432617 3831.320313 1588.541016 3827.812988 C 1582.657227 3824.297363 1577.652344 3819.446777 1573.517578 3813.253906 C 1569.391602 3807.052734 1566.185547 3799.720215 1563.915039 3791.256836 C 1561.644531 3782.785156 1560.504883 3773.597168 1560.504883 3763.685059 C 1560.504883 3753.772949 1561.595703 3744.585449 1563.760742 3736.11377 C 1565.933594 3727.650391 1569.083008 3720.366699 1573.208984 3714.279297 C 1577.342773 3708.184082 1582.298828 3703.431641 1588.077148 3700.021484 C 1593.862305 3696.619629 1600.365234 3694.910645 1607.591797 3694.910645 C 1614.826172 3694.910645 1621.376953 3696.668457 1627.269531 3700.17627 C 1633.15332 3703.691895 1638.158203 3708.541992 1642.291992 3714.743164 C 1646.417969 3720.936035 1649.624023 3728.268555 1651.895508 3736.731934 C 1654.166016 3745.204102 1655.304688 3754.391602 1655.304688 3764.303223 L 1655.304688 3764.303223 Z"/>
        <path id="path11" fill="#ffffff" stroke="none" d="M 852.855469 1034.575684 L 830.6875 1012.179688 C 824.501953 1017.90918 818.285156 1022.433594 812.027344 1025.753906 C 805.769531 1029.074219 798.111328 1030.726074 789.061523 1030.726074 C 782.274414 1030.726074 776.056641 1029.407715 770.401367 1026.770996 C 764.745117 1024.134277 759.918945 1020.553711 755.923828 1016.028809 C 751.927734 1011.504395 748.802734 1006.222656 746.540039 1000.192383 C 744.277344 994.162109 743.147461 987.749512 743.147461 980.962402 L 743.147461 980.514648 C 743.147461 973.727539 744.277344 967.355469 746.540039 961.398438 C 748.802734 955.441406 751.967773 950.200684 756.037109 945.675781 C 760.106445 941.150879 764.972656 937.61084 770.628906 935.047363 C 776.285156 932.483887 782.428711 931.198242 789.061523 931.198242 C 797.061523 931.198242 804.263672 932.785156 810.667969 935.950684 C 817.081055 939.116211 823.37207 943.486328 829.555664 949.069336 L 851.724609 923.507813 C 848.102539 919.88623 844.180664 916.574219 839.956055 913.554688 C 835.741211 910.535645 831.143555 907.972168 826.163086 905.864258 C 821.182617 903.756836 815.640625 902.09668 809.537109 900.883789 C 803.425781 899.679688 796.678711 899.077148 789.289063 899.077148 C 777.074219 899.077148 765.916992 901.226074 755.80957 905.522461 C 745.709961 909.819824 737.035156 915.703613 729.799805 923.166016 C 722.557617 930.636719 716.910156 939.303711 712.833008 949.183105 C 708.763672 959.0625 706.729492 969.650391 706.729492 980.962402 L 706.729492 981.417969 C 706.729492 992.72998 708.763672 1003.35791 712.833008 1013.311035 C 716.910156 1023.263672 722.557617 1031.897949 729.799805 1039.213867 C 737.035156 1046.522461 745.636719 1052.291992 755.589844 1056.515625 C 765.542969 1060.739258 776.325195 1062.84668 787.930664 1062.84668 C 795.621094 1062.84668 802.5625 1062.212402 808.74707 1060.92627 C 814.932617 1059.648438 820.621094 1057.760742 825.821289 1055.270508 C 831.029297 1052.780273 835.814453 1049.801758 840.18457 1046.334961 C 844.5625 1042.868164 848.77832 1038.945801 852.855469 1034.575684 L 852.855469 1034.575684 Z"/>
        <path id="path12" fill="#ffffff" stroke="none" d="M 942.65918 1006.523438 L 942.65918 973.5 L 872.989258 973.5 L 872.989258 1006.523438 L 942.65918 1006.523438 L 942.65918 1006.523438 Z"/>
        <path id="path13" fill="#ffffff" stroke="none" d="M 1047.842773 900.664551 L 960.977539 1001.32373 L 966.632813 1025.981934 L 1044.000977 1025.981934 L 1044.000977 1060.136719 L 1077.245117 1060.136719 L 1077.245117 1025.981934 L 1098.509766 1025.981934 L 1098.509766 997.702148 L 1077.245117 997.702148 L 1077.245117 900.664551 L 1047.842773 900.664551 L 1047.842773 900.664551 Z M 1044.000977 997.702148 L 1001.919922 997.702148 L 1044.000977 948.394043 L 1044.000977 997.702148 L 1044.000977 997.702148 Z"/>
        <path id="path14" fill="#ffffff" stroke="none" d="M 1115.249023 914.230469 L 1122.492188 942.738281 L 1150.088867 935.950684 L 1150.088867 1060.136719 L 1184.47168 1060.136719 L 1184.47168 900.664551 L 1160.716797 900.664551 L 1115.249023 914.230469 L 1115.249023 914.230469 Z"/>
        <path id="path15" fill="#ffffff" stroke="none" d="M 1870.978516 3858.419922 L 1870.978516 3725.078613 L 1842.023438 3725.078613 L 1842.023438 3807.183105 L 1779.540039 3725.078613 L 1752.489258 3725.078613 L 1752.489258 3858.419922 L 1781.444336 3858.419922 L 1781.444336 3773.654297 L 1846.02832 3858.419922 L 1870.978516 3858.419922 L 1870.978516 3858.419922 Z"/>
        <path id="path16" fill="#ffffff" stroke="none" d="M 2020.140625 3836.89502 L 2001.47168 3818.039063 C 1996.263672 3822.864746 1991.022461 3826.67334 1985.757813 3829.464844 C 1980.484375 3832.26416 1974.039063 3833.65625 1966.421875 3833.65625 C 1960.700195 3833.65625 1955.458984 3832.548828 1950.699219 3830.327148 C 1945.938477 3828.105469 1941.87793 3825.086426 1938.507813 3821.27832 C 1935.146484 3817.469238 1932.510742 3813.017578 1930.606445 3807.939941 C 1928.702148 3802.861328 1927.749023 3797.466309 1927.749023 3791.753418 L 1927.749023 3791.370605 C 1927.749023 3785.657715 1928.702148 3780.286621 1930.606445 3775.273438 C 1932.510742 3770.25293 1935.179688 3765.841797 1938.605469 3762.033203 C 1942.032227 3758.224609 1946.133789 3755.238281 1950.893555 3753.081543 C 1955.655273 3750.916504 1960.831055 3749.842285 1966.421875 3749.842285 C 1973.151367 3749.842285 1979.214844 3751.176758 1984.610352 3753.838379 C 1990.005859 3756.507324 1995.311523 3760.193848 2000.511719 3764.889648 L 2019.180664 3743.364258 C 2016.136719 3740.312988 2012.833008 3737.521484 2009.276367 3734.982422 C 2005.719727 3732.443359 2001.845703 3730.286621 1997.655273 3728.504395 C 1993.472656 3726.730469 1988.800781 3725.330566 1983.658203 3724.313477 C 1978.514648 3723.295898 1972.834961 3722.791504 1966.608398 3722.791504 C 1956.322266 3722.791504 1946.922852 3724.598145 1938.418945 3728.219727 C 1929.90625 3731.841309 1922.606445 3736.789063 1916.510742 3743.07959 C 1910.416016 3749.362305 1905.647461 3756.67041 1902.220703 3764.987305 C 1898.794922 3773.304199 1897.077148 3782.223633 1897.077148 3791.753418 L 1897.077148 3792.12793 C 1897.077148 3801.657227 1898.794922 3810.608887 1902.220703 3818.990723 C 1905.647461 3827.373535 1910.416016 3834.640625 1916.510742 3840.80127 C 1922.606445 3846.961426 1929.84082 3851.819824 1938.223633 3855.376465 C 1946.605469 3858.932617 1955.6875 3860.707031 1965.469727 3860.707031 C 1971.939453 3860.707031 1977.782227 3860.169434 1982.991211 3859.087402 C 1988.199219 3858.013184 1992.992188 3856.42627 1997.370117 3854.32666 C 2001.756836 3852.235352 2005.785156 3849.720215 2009.47168 3846.807129 C 2013.149414 3843.885254 2016.707031 3840.581543 2020.140625 3836.89502 L 2020.140625 3836.89502 Z"/>
        <path id="path17" fill="#000000" stroke="none" d="M 678.628906 3124.671387 L 639.598633 3134.583496 L 648.892578 3172.376465 L 478.81543 3172.376465 L 478.81543 3219.462891 L 697.21582 3219.462891 L 697.21582 3186.935547 L 678.628906 3124.671387 L 678.628906 3124.671387 Z"/>
        <path id="path18" fill="#000000" stroke="none" d="M 675.682617 3427.633789 C 679.401367 3422.881348 682.706055 3418.03125 685.700195 3413.074707 C 688.695313 3408.119141 691.177734 3402.959473 693.244141 3397.588379 C 695.302734 3392.217285 696.800781 3386.431152 697.834961 3380.238281 C 698.868164 3374.044922 699.380859 3367.225098 699.380859 3359.79541 C 699.380859 3343.681641 696.336914 3329.644043 690.249023 3317.665039 C 684.154297 3305.685547 675.788086 3295.773438 665.152344 3287.92041 C 654.515625 3280.075195 641.974609 3274.240234 627.513672 3270.423828 C 613.060547 3266.598633 597.46875 3264.686035 580.736328 3264.686035 C 559.048828 3264.686035 541.861328 3267.013672 529.157227 3271.660645 C 516.454102 3276.307129 506.18457 3282.557129 498.338867 3290.402344 C 490.697266 3298.043945 484.911133 3306.816895 480.988281 3316.736816 C 477.066406 3326.648926 475.104492 3338.726074 475.104492 3352.975586 C 475.104492 3364.751465 476.911133 3375.696777 480.525391 3385.812012 C 484.137695 3395.936035 489.297852 3404.660156 496.011719 3411.992188 C 502.725586 3419.324707 510.675781 3425.102539 519.864258 3429.342773 C 529.051758 3433.574219 539.224609 3435.689941 550.381836 3435.689941 C 561.734375 3435.689941 571.751953 3433.729004 580.426758 3429.806152 C 589.102539 3425.875977 596.329102 3420.513184 602.115234 3413.693359 C 607.892578 3406.881836 612.279297 3398.825195 615.282227 3389.531738 C 618.277344 3380.238281 619.766602 3370.220215 619.766602 3359.486328 C 619.766602 3348.744141 618.326172 3339.914063 615.4375 3332.99707 C 612.540039 3326.07959 609.341797 3319.935059 605.826172 3314.563965 C 612.905273 3315.394531 619.5625 3316.834961 625.755859 3318.901855 C 632.005859 3320.96875 637.376953 3323.809082 641.820313 3327.422363 C 646.304688 3331.035645 649.820313 3335.373047 652.456055 3340.426758 C 655.036133 3345.48877 656.322266 3351.429199 656.322266 3358.241211 C 656.322266 3362.790039 655.907227 3367.021973 655.084961 3370.944336 C 654.263672 3374.866699 653.124023 3378.585938 651.674805 3382.101563 C 650.235352 3385.608887 648.427734 3389.019043 646.255859 3392.322754 C 644.09082 3395.626953 641.666016 3399.028809 638.980469 3402.544434 L 675.682617 3427.633789 L 675.682617 3427.633789 Z M 548.208984 3388.604004 C 538.711914 3388.604004 530.963867 3385.348633 524.974609 3378.789551 C 518.985352 3372.287109 515.990234 3363.099609 515.990234 3351.274902 C 515.990234 3339.450195 519.041992 3330.15625 525.128906 3323.442871 C 531.224609 3316.679688 539.020508 3313.327148 548.517578 3313.327148 C 557.811523 3313.327148 565.404297 3316.574219 571.288086 3323.133789 C 577.171875 3329.644043 580.118164 3338.832031 580.118164 3350.65625 C 580.118164 3362.480469 577.123047 3371.774414 571.133789 3378.47998 C 565.144531 3385.242676 557.50293 3388.604004 548.208984 3388.604004 L 548.208984 3388.604004 Z"/>
        <path id="path19" fill="#000000" stroke="none" d="M 587.556641 3662.448242 C 603.246094 3662.448242 617.911133 3660.177734 631.541992 3655.636719 C 645.172852 3651.087891 657.046875 3644.633789 667.169922 3636.276367 C 677.286133 3627.910645 685.1875 3617.786621 690.868164 3605.913574 C 696.548828 3594.040039 699.380859 3580.872559 699.380859 3566.419434 C 699.380859 3551.958008 696.491211 3538.798828 690.713867 3526.91748 C 684.927734 3515.044434 676.976563 3504.87207 666.861328 3496.408203 C 656.737305 3487.936523 644.814453 3481.385254 631.078125 3476.73877 C 617.34082 3472.091797 602.626953 3469.76416 586.929688 3469.76416 C 571.036133 3469.76416 556.314453 3472.034668 542.789063 3476.583984 C 529.263672 3481.124512 517.438477 3487.578613 507.314453 3495.944336 C 497.199219 3504.310059 489.297852 3514.425293 483.617188 3526.298828 C 477.945313 3538.172852 475.104492 3551.339844 475.104492 3565.80127 C 475.104492 3580.254395 477.993164 3593.421387 483.780273 3605.294922 C 489.557617 3617.167969 497.508789 3627.340332 507.632813 3635.812012 C 517.748047 3644.275879 529.62207 3650.835449 543.251953 3655.481934 C 556.883789 3660.128906 571.646484 3662.448242 587.556641 3662.448242 L 587.556641 3662.448242 Z M 586.929688 3613.506348 C 577.017578 3613.506348 567.87793 3612.423828 559.520508 3610.250977 C 551.154297 3608.085938 543.871094 3604.937012 537.678711 3600.802734 C 531.485352 3596.676758 526.683594 3591.712891 523.273438 3585.934082 C 519.864258 3580.148438 518.163086 3573.645996 518.163086 3566.419434 C 518.163086 3559.192871 519.913086 3552.633789 523.427734 3546.749512 C 526.935547 3540.85791 531.793945 3535.853027 537.987305 3531.719238 C 544.180664 3527.593262 551.512695 3524.386719 559.984375 3522.115723 C 568.448242 3519.845703 577.635742 3518.714355 587.556641 3518.714355 C 597.46875 3518.714355 606.655273 3519.796875 615.126953 3521.961426 C 623.59082 3524.134277 630.874023 3527.28418 636.961914 3531.409668 C 643.057617 3535.543945 647.801758 3540.499512 651.211914 3546.27832 C 654.62207 3552.063965 656.322266 3558.566406 656.322266 3565.80127 C 656.322266 3573.027832 654.572266 3579.586914 651.056641 3585.470703 C 647.549805 3591.354492 642.691406 3596.367188 636.498047 3600.493652 C 630.304688 3604.62793 622.972656 3607.825684 614.500977 3610.09668 C 606.037109 3612.366699 596.849609 3613.506348 586.929688 3613.506348 L 586.929688 3613.506348 Z"/>
        <path id="path20" fill="#000000" stroke="none" d="M 492.813477 3829.179688 L 626.163086 3829.179688 L 626.163086 3800.225098 L 544.058594 3800.225098 L 626.163086 3737.749512 L 626.163086 3710.69873 L 492.813477 3710.69873 L 492.813477 3739.653809 L 577.586914 3739.653809 L 492.813477 3804.229004 L 492.813477 3829.179688 L 492.813477 3829.179688 Z"/>
        <path id="path21" fill="#000000" stroke="none" d="M 514.345703 3978.341797 L 533.202148 3959.67334 C 528.375977 3954.464844 524.567383 3949.224121 521.768555 3943.958496 C 518.976563 3938.685059 517.577148 3932.239746 517.577148 3924.622559 C 517.577148 3918.909668 518.692383 3913.668945 520.914063 3908.908203 C 523.135742 3904.146973 526.154297 3900.078613 529.962891 3896.717285 C 533.772461 3893.348145 538.21582 3890.711426 543.301758 3888.807129 C 548.379883 3886.90332 553.774414 3885.950684 559.487305 3885.950684 L 559.870117 3885.950684 C 565.583008 3885.950684 570.954102 3886.90332 575.967773 3888.807129 C 580.980469 3890.711426 585.399414 3893.380859 589.208008 3896.807129 C 593.016602 3900.240723 596.00293 3904.334961 598.160156 3909.095215 C 600.316406 3913.855957 601.398438 3919.031738 601.398438 3924.622559 C 601.398438 3931.352539 600.064453 3937.415527 597.394531 3942.811035 C 594.733398 3948.214844 591.047852 3953.512695 586.351563 3958.721191 L 607.876953 3977.389648 C 610.919922 3974.337402 613.719727 3971.041992 616.258789 3967.48584 C 618.797852 3963.929199 620.954102 3960.055664 622.736328 3955.864258 C 624.510742 3951.67334 625.910156 3947.002441 626.927734 3941.858887 C 627.945313 3936.715332 628.449219 3931.035645 628.449219 3924.810059 C 628.449219 3914.523438 626.634766 3905.124023 623.021484 3896.619629 C 619.399414 3888.107422 614.444336 3880.807617 608.161133 3874.712402 C 601.871094 3868.616699 594.571289 3863.855957 586.253906 3860.421875 C 577.9375 3856.995605 569.009766 3855.278809 559.487305 3855.278809 L 559.105469 3855.278809 C 549.583984 3855.278809 540.631836 3856.995605 532.25 3860.421875 C 523.868164 3863.855957 516.592773 3868.616699 510.439453 3874.712402 C 504.279297 3880.807617 499.420898 3888.050781 495.865234 3896.432617 C 492.308594 3904.814941 490.526367 3913.888672 490.526367 3923.67041 C 490.526367 3930.148438 491.071289 3935.991699 492.145508 3941.191895 C 493.228516 3946.400391 494.814453 3951.193359 496.915039 3955.57959 C 499.005859 3959.958008 501.512695 3963.994629 504.433594 3967.672852 C 507.355469 3971.359375 510.660156 3974.915527 514.345703 3978.341797 L 514.345703 3978.341797 Z"/>
    </g>
</svg>
